<?xml version="1.0" encoding="UTF-8" standalone="no"?>
<svg width="266px" height="193px" viewBox="0 0 266 193" version="1.1" xmlns="http://www.w3.org/2000/svg" xmlns:xlink="http://www.w3.org/1999/xlink">
    <!-- Generator: Sketch 3.7.1 (28215) - http://www.bohemiancoding.com/sketch -->
    <title>Page 1</title>
    <desc>Created with Sketch.</desc>
    <defs></defs>
    <g id="Error" stroke="none" stroke-width="1" fill="none" fill-rule="evenodd">
        <g id="Desktop-HD" transform="translate(-99.000000, -607.000000)" fill="#FFFFFF">
            <path d="M291.652545,607 L291.652545,631.163482 L267.542517,631.163482 L267.542517,655.325975 L195.628192,655.325975 L195.628192,631.163482 L171.521134,631.163482 L171.521134,607 L147.358642,607 L147.358642,631.163482 L171.4657,631.163482 L171.462235,654.784004 L147.299743,654.784004 L147.299743,679.45976 L123.162987,679.45976 L123.162987,703.348545 L99,703.348545 L99,775.839982 L123.162987,775.839982 L123.162987,727.511533 L123.165957,727.511533 L147.299743,727.511533 L147.299743,775.839982 L171.397891,775.839982 L171.397891,800.000495 L171.521134,800.000495 L219.720897,800.000495 L219.720897,775.839982 L171.521134,775.839982 L171.462235,775.839982 L171.462235,751.67452 L171.4657,751.67452 L291.705504,751.67452 L291.708474,751.67452 L291.708474,775.839982 L291.65007,775.839982 L243.447833,775.839982 L243.447833,800.000495 L291.65007,800.000495 L291.773313,800.000495 L291.773313,775.839982 L315.871462,775.839982 L315.871462,727.511533 L340.004752,727.511533 L340.004752,775.839982 L364.167739,775.839982 L364.167739,703.348545 L340.004752,703.348545 L340.004752,679.45976 L315.871462,679.45976 L315.871462,654.784004 L291.708474,654.784004 L291.705504,631.163482 L315.815532,631.163482 L315.815532,607 L291.652545,607 Z M267.628143,703.348545 L291.672838,703.348545 L291.672838,679.485993 L267.628143,679.485993 L267.628143,703.348545 Z M171.494902,703.348545 L195.54603,703.348545 L195.54603,679.485993 L171.494902,679.485993 L171.494902,703.348545 Z" id="Page-1"></path>
        </g>
    </g>
</svg>