<svg xmlns="http://www.w3.org/2000/svg" width="780" height="170" viewBox="0 0 780 170"><path opacity=".4" fill="#FFF" d="M270.612 18.584c-3.055-.024-5.632.026-7.943.71-.023 2.24.973 4.46 2.9 5.91 1.946 1.467 4.387 1.804 6.55 1.135.006-2.388-.65-4.857-1.508-7.756zM241.592 49.46s-4.186 2.134-4.244 8.012c0 0 .762-.528 1.573-.942 0 0-1.236 2.862-.4 6.482 0 0 7.588-.84 10.523-7.94"/><path fill="none" stroke="#FFF" stroke-width="1.63" stroke-miterlimit="10" d="M241.592 49.46s-4.186 2.134-4.244 8.012c0 0 .762-.528 1.573-.942 0 0-1.236 2.862-.4 6.482 0 0 7.588-.84 10.523-7.94"/><path opacity=".4" fill="#FFF" d="M234.307 47.932s-1.87 2.484-.787 5.585c0 0 3.247.798 5.437-2.083"/><path fill="none" stroke="#FFF" stroke-width="1.63" stroke-linecap="round" stroke-linejoin="round" stroke-miterlimit="10" d="M234.307 47.932s-1.87 2.484-.787 5.585c0 0 3.247.798 5.437-2.083"/><path opacity=".4" fill="#FFF" d="M247.91 58.178s-1.87 2.484-.787 5.585c0 0 3.247.798 5.437-2.083"/><path fill="none" stroke="#FFF" stroke-width="1.63" stroke-linecap="round" stroke-linejoin="round" stroke-miterlimit="10" d="M247.91 58.178s-1.87 2.484-.787 5.585c0 0 3.247.798 5.437-2.083"/><path fill="none" stroke="#FFF" stroke-width="2.038" stroke-linecap="round" stroke-linejoin="round" stroke-miterlimit="10" d="M270.612 18.584c-6.236-.05-10.488.196-14.527 5.56-1.59 2.11-15.264 21.105-15.833 23.385l10.922 8.226c2.034-1.177 16.515-19.562 18.106-21.674 4.04-5.364 3.1-9.518 1.332-15.498z"/><path fill="none" stroke="#FFF" stroke-width="2.038" stroke-linecap="round" stroke-linejoin="round" stroke-miterlimit="10" d="M248.083 57.826l5.287 3.982c1.157-.676 2.218-1.61 3.116-2.8 2.282-3.03 2.74-6.822 1.74-10.2M244.896 38.79c-3.523-.027-6.947 1.48-9.23 4.51-.898 1.194-1.507 2.49-1.838 3.79l5.43 4.09"/><path fill="none" stroke="#FFF" stroke-width=".815" stroke-linecap="round" stroke-linejoin="round" stroke-miterlimit="10" d="M241.797 44.4l11.854 8.93"/><path opacity=".4" fill="#FFF" d="M258.323 39.142c-.852 1.62-3.008 1.924-4.275.6-.767-.802-.942-2.04-.428-3.022.85-1.626 3.014-1.93 4.28-.6.767.802.94 2.04.423 3.022z"/><path fill="none" stroke="#FFF" stroke-width="1.63" stroke-linecap="round" stroke-linejoin="round" stroke-miterlimit="10" d="M258.323 39.142c-.852 1.62-3.008 1.924-4.275.6-.767-.802-.942-2.04-.428-3.022.85-1.626 3.014-1.93 4.28-.6.767.802.94 2.04.423 3.022z"/><path opacity=".4" fill="#FFF" d="M261.627 32.728c-.454.863-1.6 1.024-2.275.32-.408-.428-.5-1.086-.228-1.61.453-.865 1.604-1.026 2.278-.32.408.43.5 1.087.225 1.61z"/><path fill="none" stroke="#FFF" stroke-width=".815" stroke-miterlimit="10" d="M261.627 32.728c-.454.863-1.6 1.024-2.275.32-.408-.428-.5-1.086-.228-1.61.453-.865 1.604-1.026 2.278-.32.408.43.5 1.087.225 1.61z"/><path opacity=".4" fill="#FFF" d="M252.82 44.42c-.453.863-1.6 1.024-2.274.32-.408-.428-.5-1.086-.228-1.61.453-.865 1.604-1.026 2.278-.32.408.43.5 1.087.225 1.61z"/><path fill="none" stroke="#FFF" stroke-width=".815" stroke-miterlimit="10" d="M252.82 44.42c-.453.863-1.6 1.024-2.274.32-.408-.428-.5-1.086-.228-1.61.453-.865 1.604-1.026 2.278-.32.408.43.5 1.087.225 1.61z"/><path fill="none" stroke="#FFF" stroke-width=".815" stroke-linecap="round" stroke-linejoin="round" stroke-miterlimit="10" d="M262.59 19.454c.637 4.53 4.82 7.68 9.35 7.043"/><path fill="none" stroke="#FFF" stroke-width="1.87" stroke-miterlimit="10" d="M533.987 86.665l-1.247-6.833c0-.262-.142-.505-.368-.64l-14.425-8.56c-.226-.134-.505-.14-.737-.017l-6.595 2.18c-.007.003-.01.01-.018.013-.054.032-.105.07-.15.113-.007.01-.016.014-.022.02-.038.04-.072.084-.102.134-.006.01-.01.02-.013.03-.008.013-.014.026-.02.04-.026.056-.045.113-.056.17l-.006.028c-.01.068-.01.135-.003.203.002.007 0 .014 0 .02l2.953 20.38.002.01c0 .004.003.01.004.014.008.05.024.104.045.156v.007l.01.02c.03.068.068.133.122.192.04.044.086.078.133.11.016.01.027.027.044.037.003.003.007.003.01.005.06.033.12.056.182.073l.023.01.003-.002h.002c.02.004.037.004.055.007.02.005.043.007.064.01.025 0 .05 0 .076-.002.018-.002.036 0 .053-.002.008 0 .016 0 .025-.002.044-.007.085-.018.126-.03.01-.004.017-.003.025-.006l.008-.004 19.305-7.17c.295-.113.49-.397.49-.713z"/><path fill="none" stroke="#FFF" stroke-width=".748" stroke-linecap="round" stroke-linejoin="round" stroke-miterlimit="10" d="M511.222 73.432l21.84 12.962M523.07 74.617l-5.286 2.714-3.856 16.297M526.358 76.57l.15 5.938L514.05 93.7"/><path opacity=".4" fill="#FFF" d="M526.358 76.57l.15 5.938L514.05 93.7l-.122-.073 3.856-16.296 5.286-2.713"/><path fill="#FFF" d="M170.985 56.968c.07-.117.05-.267-.046-.364l-6.776-6.884c-.02-.02-.04-.036-.063-.05-.022-.012-.046-.023-.072-.03l-9.318-2.54c-.13-.037-.27.02-.34.14-.07.116-.05.266.046.363l6.775 6.883c.04.038.086.066.137.08l9.32 2.54c.13.037.27-.02.338-.138zm-7.812-6.53l-1.705 2.91-4.54-4.612 6.245 1.702zm-6.245-1.702"/><circle fill="none" stroke="#FFF" stroke-width="2.636" stroke-miterlimit="10" cx="162.678" cy="52.103" r="13.182"/><circle opacity=".4" fill="none" stroke="#FFF" stroke-width="2.636" stroke-miterlimit="10" cx="162.678" cy="52.103" r="11.424"/><path fill="#FFF" d="M588.01 75.974c2.603 0 5.06 1.574 6.06 4.146 1.3 3.345-.36 7.11-3.704 8.41-.773.302-1.57.444-2.352.444-2.603 0-5.06-1.575-6.06-4.146-1.3-3.345.36-7.11 3.704-8.41.773-.302 1.57-.444 2.352-.444m0-2c-1.054 0-2.09.195-3.077.58-4.368 1.696-6.54 6.63-4.843 10.998 1.28 3.294 4.39 5.422 7.923 5.422 1.053 0 2.088-.195 3.076-.58 2.115-.82 3.784-2.418 4.7-4.496.914-2.078.965-4.387.143-6.503-1.28-3.293-4.39-5.42-7.923-5.42z"/><circle opacity=".4" fill="none" stroke="#FFF" cx="588.012" cy="82.474" r="6.156"/><circle fill="none" stroke="#FFF" stroke-width="2" cx="611.96" cy="73.757" r="7.31"/><circle opacity=".4" fill="none" stroke="#FFF" cx="611.96" cy="73.757" r="6.156"/><circle fill="#FFF" cx="587.928" cy="82.773" r=".994"/><path fill="none" stroke="#FFF" stroke-width="1.015" d="M597.532 78.984l-8.883-10.822"/><path fill="none" stroke="#FFF" stroke-width="1.32" d="M590.952 71l13.233-5.142M599.46 78.326l5.854-11.107"/><path fill="none" stroke="#FFF" stroke-width=".609" d="M596.926 80.586l-8.998 2.187"/><path fill="none" stroke="#FFF" stroke-width="1.32" d="M587.928 82.773L590.952 71"/><path fill="#FFF" d="M611.7 73.536l-.045.02c-1.11-1.176-5.366-5.7-5.464-5.858l-2.976-3.887 2.337-.692c.924-.223 1.86.34 2.094 1.262.236.93-.33 1.878-1.258 2.114-.1.025-.16.127-.135.227.026.1.128.16.228.136.085-.022.167-.048.246-.08.98-.38 1.546-1.444 1.28-2.488-.286-1.13-1.438-1.814-2.567-1.527l-.034.013-3.406 1.006 3.51 4.456 5.934 5.534c-.063.122-.076.27-.022.41.1.255.388.382.643.282.256-.1.384-.388.284-.643-.1-.257-.388-.384-.643-.284z"/><path fill="#FFF" stroke="#FFF" stroke-width=".5" d="M586.93 68.14c-.513.11-.978.114-.98.337-.002.223.206.187.206.187s.576.11.787.14c.21.028.674.248 2.222-.687s1.5-.716 1.91-.743c.413-.027.795-.13 1.05-.274.255-.144.026-.277-.294-.24-.32.034-1.117.216-2.67.726-1.105.362-2.23.555-2.23.555z"/><path fill="none" stroke="#FFF" stroke-width=".711" stroke-linecap="round" d="M601.085 83.526l-1.752-2.2-.87-1.09"/><path fill="#FFF" d="M601.78 83.372c.046.115-.01.245-.127.29l-.896.347c-.115.044-.245-.013-.29-.128l-.077-.2c-.045-.116.012-.245.127-.29l.896-.348c.115-.045.245.012.29.127l.078.202z"/><circle fill="none" stroke="#FFF" stroke-miterlimit="10" cx="598.457" cy="80.213" r="1.828"/><g><path fill="none" stroke="#FFF" stroke-width="2.259" stroke-linecap="round" stroke-linejoin="round" d="M134.002 115.764l7.274-7.274-30.857-12.244 12.243 30.858 7.274-7.274 4.295.23z"/><path opacity=".4" fill="#FFF" d="M134.002 115.764L110.42 96.246l19.517 23.584 4.295.23"/><path fill="none" stroke="#FFF" stroke-width="1.129" d="M134.002 115.764L110.42 96.246l19.517 23.584 4.295.23z"/></g><g><path fill="#FFF" d="M372.995 41.048c-1.03-.18-2.014.506-2.196 1.535-.182 1.03.508 2.015 1.537 2.196 1.03.18 2.015-.51 2.196-1.54.182-1.028-.51-2.01-1.538-2.192z" opacity=".4"/><path fill="none" stroke="#FFF" stroke-width=".948" stroke-miterlimit="10" d="M372.995 41.048c-1.03-.18-2.014.506-2.196 1.535-.182 1.03.508 2.015 1.537 2.196 1.03.18 2.015-.51 2.196-1.54.182-1.028-.51-2.01-1.538-2.192z"/><path fill="#FFF" d="M366.545 6.654l24.22 4.25c.012.003.02.006.03.007.015.004.024 0 .03-.006l-5.432 30.803-.06.005-24.187-4.268c-.017-.003-.026 0-.03.007l5.43-30.796z" opacity=".4"/><path fill="#FFF" d="M390.273 11.297l-5.268 29.875-23.34-4.115 5.268-29.875 23.34 4.115m.575-.86l-24.16-4.26c-.29-.052-.554.083-.593.304l-5.457 30.947c-.04.22.163.44.454.49l24.16 4.26c.285.05.554-.085.593-.305l5.457-30.946c.038-.22-.17-.44-.454-.49z"/><path fill="none" stroke="#FFF" stroke-width=".948" stroke-linecap="round" stroke-linejoin="round" stroke-miterlimit="10" d="M375.03 5.666l8.155 1.438M387.837 23.082l-5.352-7.644M384.803 22.547l-9.13-13.04"/><g><path fill="none" stroke="#FFF" stroke-width="2.37" stroke-miterlimit="10" d="M383.85 47.05c-.273 1.54-1.755 2.58-3.296 2.307l-18.44-3.25c-1.54-.273-2.578-1.755-2.306-3.296l6.915-39.21c.272-1.54 1.754-2.58 3.295-2.307l18.438 3.25c1.54.273 2.58 1.755 2.307 3.296l-6.914 39.21z"/></g></g><g><path fill="#FFF" d="M696.81 99.732c.682-1.42.844-3.094.322-4.708-.982-3.035-4.042-4.83-7.1-4.318l.425-.966-1.032-3.19c-.26-.8-1.116-1.24-1.915-.98l-.224.072c-.8.26-1.238 1.116-.98 1.915l1.033 3.19.91.535c-2.778 1.376-4.21 4.623-3.227 7.66.522 1.613 1.633 2.874 3.017 3.627l-2.176 14.63c-1.485.67-2.262 2.367-1.75 3.952.188.577.522 1.066.95 1.44l-.464 3.108 3.274-2.376.07-.016c1.54-.365 2.638-1.858 2.486-3.43-.1-1.026-.63-1.855-1.367-2.372l2.106-14.16c.618-.01 1.246-.11 1.865-.31s1.187-.486 1.693-.84l13.922 14.262 4.495.01L696.81 99.73zm-8.894 22.64c-1.417.458-2.96-.517-3.05-2.12-.047-.81.366-1.615 1.05-2.05 1.35-.86 3.043-.18 3.5 1.234.397 1.223-.277 2.54-1.5 2.936zm4.597-20.952c-2.76.893-5.757-.934-6.083-3.99-.19-1.79.726-3.582 2.287-4.476 2.67-1.528 5.906-.168 6.798 2.592.792 2.448-.554 5.083-3.002 5.874zm-.394-1.217"/></g><g><path fill="none" stroke="#FFF" stroke-linecap="round" stroke-linejoin="round" stroke-miterlimit="10" d="M84.47 45.106V31.924"/><path opacity=".4" fill="#FFF" d="M66.384 34.66l18.068 10.43V31.908l-18.068-10.43"/><path fill="none" stroke="#FFF" stroke-linecap="round" stroke-linejoin="round" stroke-miterlimit="10" d="M66.384 21.476l18.068 10.43 12.116-6.982"/><path fill="none" stroke="#FFF" stroke-width="2.5" stroke-linecap="round" stroke-linejoin="round" stroke-miterlimit="10" d="M66.384 21.46l.003.003h-.003v13.18l18.068 10.43.005-.026.012.043 12.098-7V24.908"/><ellipse fill="none" stroke="#FFF" stroke-width="1.5" stroke-linecap="square" stroke-miterlimit="1.414" cx="77.945" cy="23.22" rx="3" ry="1.875"/><ellipse fill="none" stroke="#FFF" stroke-width="1.5" stroke-linecap="square" stroke-miterlimit="1.414" cx="84.695" cy="26.97" rx="3" ry="1.875"/><path fill="#FFF" d="M97.193 23.826l-2.105-1.215c-.372-1.128-1.752-1.95-3.47-2.003l-3.365-1.942C87.82 17.7 86.64 17 85.155 16.877l-3.743-2.16c-.55-.964-1.88-1.63-3.475-1.63-2 0-3.57 1.048-3.72 2.417l-2.392 1.378c-.208-.024-.42-.044-.64-.044-2.074 0-3.7 1.124-3.74 2.57l-1.686.97c-.317.182-.537.494-.605.853-.067.36.025.73.253 1.015.405.506 1.12.614 1.654.268L68.82 21.5c.642.364 1.455.59 2.365.59 2.103 0 3.75-1.154 3.75-2.626 0-.45-.17-.866-.445-1.233l.957-.55c.66.406 1.52.658 2.488.658 1.23 0 2.294-.402 2.974-1.025l.872.504c-.518.45-.838 1.018-.838 1.653 0 1.472 1.647 2.625 3.75 2.625 1.172 0 2.19-.366 2.873-.94l.863.5c-.458.434-.736.97-.736 1.565 0 1.472 1.647 2.625 3.75 2.625 1.113 0 2.09-.33 2.77-.85l1.728.996c.197.115.412.168.624.168.432 0 .852-.224 1.084-.625.346-.598.14-1.362-.457-1.707zm-26.005-3.238c-1.288 0-2.25-.594-2.25-1.125s.962-1.125 2.25-1.125c1.268 0 2.25.605 2.25 1.125s-.983 1.125-2.25 1.125zm6.75-3.75c-1.288 0-2.25-.594-2.25-1.125 0-.53.962-1.125 2.25-1.125 1.268 0 2.25.605 2.25 1.125s-.983 1.125-2.25 1.125zm4.507 2.632c0-.53.962-1.125 2.25-1.125 1.268 0 2.25.605 2.25 1.125s-.982 1.125-2.25 1.125c-1.288 0-2.25-.594-2.25-1.125zm6.75 3.75c0-.53.962-1.125 2.25-1.125 1.268 0 2.25.605 2.25 1.125s-.982 1.125-2.25 1.125c-1.288 0-2.25-.594-2.25-1.125z"/></g><g><path fill="#FFF" d="M624.99 12.12c-6.712 0-12.163 5.455-12.163 12.163 0 3.92 1.91 7.62 5.097 9.895l.147.1c.743.435.824 1.84.804 2.097v5.117c0 .762.426 1.457 1.097 1.81l4.1 2.088c.286.15.603.218.92.218.317 0 .623-.068.91-.218l4.136-2.087c.682-.345 1.117-1.04 1.117-1.81v-4.968c0-2 1.22-2.662 1.23-2.662l.452-.286c2.74-2.326 4.317-5.71 4.317-9.292 0-6.71-5.465-12.164-12.163-12.164zm0 31.46l-4.087-2.09h8.223l-4.137 2.09zm4.135-7.863v5.774h-8.223v-5.773h8.223zm2.404-3.695s-1.366.633-2.04 2.394h-8.914c-.258-.702-.694-1.426-1.474-1.89-2.574-1.832-4.246-4.84-4.246-8.243 0-5.6 4.532-10.133 10.133-10.133 5.59 0 10.132 4.532 10.132 10.133 0 3.108-1.396 5.877-3.593 7.74zm0 0"/><path fill="#FFF" d="M625.997 16.18c-.555 0-1.008.445-1.008 1.007 0 .565.452 1.01 1.007 1.01 2.288 0 5.067 2.078 5.067 5.166 0 .562.456 1.008 1.02 1.008.553 0 1.01-.445 1.01-1.007-.002-4.623-3.614-7.184-7.097-7.184zm0 0" opacity=".4"/><path fill="#FFF" d="M625.952 34.837v-4.62l2.755-2.753c.377-.376.377-.986 0-1.362-.376-.376-.986-.376-1.362 0l-2.356 2.355-2.355-2.355c-.376-.376-.986-.376-1.363 0-.376.376-.376.986 0 1.362l2.754 2.754v4.62h1.926z"/><path fill="#FFF" d="M624.967 9.892c.668 0 1.215-.547 1.215-1.215V4.32c0-.67-.547-1.213-1.215-1.213-.672 0-1.215.543-1.215 1.214v4.357c0 .668.543 1.215 1.215 1.215zm0 0M612.463 13.532c.227.227.53.352.855.352.33 0 .633-.125.86-.356.476-.472.476-1.242 0-1.714L611.1 8.732c-.23-.227-.535-.356-.86-.356-.324 0-.63.13-.86.36-.23.226-.354.53-.354.855 0 .325.125.63.355.86l3.083 3.082zm0 0M637.467 35.103c-.227-.23-.53-.356-.856-.356-.323 0-.627.125-.858.356-.23.23-.355.535-.355.86 0 .32.125.628.355.855l3.082 3.082c.227.23.53.355.856.355.324 0 .628-.125.86-.355.472-.477.472-1.247 0-1.72l-3.083-3.077zm0 0M610.537 24.318c0-.672-.543-1.215-1.21-1.215h-4.356c-.67 0-1.214.543-1.214 1.215 0 .668.543 1.214 1.215 1.214h4.356c.668 0 1.21-.546 1.21-1.214zm0 0M644.96 23.103h-4.356c-.668 0-1.215.543-1.215 1.215 0 .668.546 1.214 1.214 1.214h4.355c.67 0 1.214-.546 1.214-1.214 0-.672-.543-1.215-1.215-1.215zm0 0M613.318 34.747c-.324 0-.628.125-.86.356l-3.077 3.078c-.472.477-.472 1.247 0 1.72.23.23.536.355.86.355.325 0 .63-.125.86-.355l3.078-3.082c.23-.227.355-.536.355-.856 0-.324-.125-.63-.355-.86-.227-.23-.53-.355-.86-.355zm0 0M636.61 13.884c.326 0 .63-.125.86-.352l3.08-3.082c.23-.23.354-.535.354-.86 0-.32-.125-.628-.355-.858-.232-.227-.536-.352-.86-.352-.325 0-.63.125-.86.356l-3.078 3.078c-.23.23-.355.535-.355.855 0 .327.125.632.355.862.23.23.53.352.86.352zm0 0" opacity=".4"/><path fill="none" stroke="#FFF" stroke-linecap="round" stroke-linejoin="round" stroke-miterlimit="10" d="M620.933 41.024l8.186-1M620.933 38.39l8.186-1"/></g><g><path fill-rule="evenodd" clip-rule="evenodd" fill="#FFF" d="M699.666 46.563l-.038-.04-.037-.04-.035-.04-.035-.043-.034-.043-.033-.044-.032-.044-.03-.046-.03-.046-.028-.046-.027-.047-.026-.047-.026-.048-.024-.048-.023-.05-.02-.048-.02-.05-.02-.05-.018-.05-.018-.052-.015-.052-.014-.052-.013-.052-.012-.053-.01-.053-.01-.053-.007-.054-.006-.054-.005-.055-.005-.054-.003-.054v-.164l.003-.054.004-.055.004-.054.007-.055.01-.054.01-.055.01-.054.012-.055.014-.054.015-.055.018-.053.018-.054.02-.054.02-.055.022-.053.02-.047.386-.827.023-.047.026-.05.027-.05.03-.05.03-.048.03-.048.032-.047.033-.046.034-.044.034-.044.036-.043.037-.043.038-.04.04-.04.04-.04.04-.037.04-.036.042-.035.043-.035.044-.033.044-.032.045-.03.046-.03.045-.03.047-.027.047-.026.047-.025.05-.024.048-.023.05-.022.05-.02.05-.02.05-.017.052-.017.052-.016.05-.014.053-.013.053-.012.053-.01.053-.01.054-.007.054-.007.055-.004.054-.004.054-.003.055-.002h.109l.054.004.055.004.054.005.055.008.054.008.055.01.054.01.055.013.054.013.055.015.053.017.054.018.054.02.054.02.053.022.047.02 1.235.577 9.915-21.264.02-.04.02-.04.02-.042.02-.04.023-.04.022-.04.023-.04.023-.04.024-.04.024-.038.025-.038.024-.038.026-.038.026-.037.026-.037.027-.036.026-.036.027-.035.028-.035.03-.035.028-.034.03-.035.028-.034.03-.032.03-.033.03-.032.032-.032.03-.03.033-.03.033-.03.032-.03.033-.03.033-.03.034-.03.034-.027.034-.028.034-.028.034-.027.035-.027.035-.026.035-.026.035-.024.036-.025.036-.023.036-.024.037-.024.037-.024.037-.023.036-.022.038-.02.038-.022.038-.02.038-.02.04-.02.038-.02.04-.02.038-.017.04-.017.04-.017.04-.017.04-.017.04-.016.04-.016.04-.014.042-.014.04-.014.042-.014.04-.013.042-.012.042-.012.042-.012.042-.01.042-.012.042-.01.042-.01.042-.01.043-.008.043-.008.043-.008.043-.007.043-.006.042-.006.043-.005.043-.005.043-.004.044-.004.043-.003.044-.003.045-.002.044-.002h.043l.044-.002h.133l.043.002.044.002.044.002.045.003.044.004.043.005.044.005.044.005.045.006.044.007.043.007.044.007.044.01.045.008.044.01.043.01.044.01.044.01.045.01.044.013.042.013.044.013.043.014.042.014.043.015.043.014.043.016.044.017.043.017.043.018.042.018.042.02.04.017 34.347 16.016.04.02.042.02.04.02.042.02.04.023.04.022.04.023.04.024.04.024.038.024.038.025.038.025.038.025.037.026.037.026.036.026.036.027.036.027.035.028.035.028.034.03.034.028.033.03.032.03.033.03.032.03.032.03.03.03.03.033.032.032.03.03.03.033.03.033.028.033.028.032.028.034.028.034.027.034.028.035.026.034.026.035.025.035.025.036.024.037.024.036.024.037.023.037.023.037.022.037.022.04.02.037.022.038.02.038.02.04.02.038.018.04.018.04.018.038.017.04.017.04.016.04.016.04.016.04.015.04.015.042.014.04.014.042.013.04.014.042.012.04.012.043.01.042.012.04.01.043.01.042.01.042.008.042.008.042.008.043.007.043.008.043.006.044.006.043.005.043.005.043.004.043.003.044.003.044.002.044.002.044v.044l.002.044v.132l-.002.044-.002.044-.002.044-.003.044-.003.044-.004.044-.005.044-.005.044-.006.044-.006.044-.007.044-.006.044-.008.044-.008.044-.01.044-.01.044-.01.044-.01.044-.01.044-.013.044-.012.044-.013.043-.014.042-.014.043-.015.043-.015.043-.016.044-.017.043-.018.043-.018.043-.018.043-.02.042-.017.04-9.917 21.264 1.643.766.047.023.05.027.05.028.05.03.048.03.05.03.046.032.046.033.045.034.044.035.044.035.042.037.04.038.04.04.038.04.037.04.037.04.035.042.034.043.033.044.03.043.032.045.03.046.028.046.027.047.026.047.025.048.024.048.023.05.02.048.02.05.02.05.018.05.017.052.015.052.014.052.012.052.012.053.01.052.01.053.007.054.008.053.005.054.004.054.003.056v.166l-.003.056-.004.055-.005.056-.007.055-.007.056-.01.055-.01.056-.013.055-.014.056-.015.055-.016.055-.018.054-.02.053-.02.053-.023.053-.02.047-.386.827-.023.047-.026.052-.028.05-.03.05-.03.048-.03.048-.032.047-.033.046-.034.046-.034.044-.036.043-.037.042-.038.04-.04.04-.04.04-.04.038-.04.036-.043.034-.043.034-.045.033-.044.033-.044.03-.046.03-.046.03-.047.027-.047.026-.048.025-.05.025-.048.023-.05.022-.05.02-.05.02-.05.017-.052.017-.052.015-.052.013-.052.013-.053.012-.053.01-.053.01-.054.007-.054.007-.055.005-.054.004-.054.004h-.164l-.054-.003-.055-.003-.054-.005-.055-.007-.054-.008-.055-.01-.054-.01-.055-.013-.054-.014-.054-.015-.054-.017-.054-.018-.054-.02-.053-.02-.053-.022-.047-.02-43.766-20.41-.046-.022-.05-.026-.05-.027-.05-.03-.048-.03-.047-.03-.048-.032-.046-.032-.045-.034-.043-.035-.043-.037-.042-.037-.04-.038-.046-.045zm1.28-1.272l.008.01.008.006.008.007.008.007.008.007.01.007.008.006.01.006.008.006.01.006.01.006.01.005.01.004.015.008 43.746 20.4.016.006.01.005.01.004.012.004.01.005.012.003.01.003.012.004.01.002.012.002.01.002.012.002h.01l.012.002h.01l.012.002h.044l.01-.002h.012l.01-.002.012-.002.01-.002.012-.002.01-.002.01-.003.01-.002.01-.003.01-.003.01-.004.01-.004.01-.004.01-.004.01-.005.01-.004.01-.005.01-.004.01-.006.008-.006.01-.006.008-.006.01-.006.008-.007.008-.008.008-.007.008-.007.008-.007.008-.007.008-.008.008-.008.007-.008.008-.01.007-.008.007-.01.006-.008.006-.01.006-.01.006-.01.006-.01.006-.01.006-.01.008-.016.376-.806.007-.016.005-.01.004-.012.004-.01.004-.012.003-.01.003-.012.003-.01.003-.012.002-.01.002-.012.002-.01v-.022l.002-.012V64.528l-.002-.01v-.012l-.002-.01-.002-.012-.002-.01-.002-.012-.002-.01-.003-.012-.003-.01-.003-.012-.002-.01-.004-.01-.004-.01-.004-.01-.004-.01-.005-.01-.005-.01-.005-.01-.005-.01-.005-.01-.006-.01-.005-.008-.006-.01-.007-.008-.007-.01-.007-.007-.008-.008-.007-.008-.007-.01-.007-.007-.007-.007-.008-.007-.008-.008-.008-.007-.01-.007-.008-.007-.01-.005-.008-.006-.01-.007-.01-.006-.01-.006-.01-.004-.01-.005-.015-.007-3.27-1.524 10.676-22.895.01-.024.01-.02.01-.02.01-.023.008-.02.008-.022.008-.022.008-.022.007-.02.007-.023.007-.022.005-.022.006-.022.007-.02.006-.023.005-.022.005-.022.005-.022.004-.02.004-.023.004-.022.004-.022.003-.022.003-.02.003-.023.003-.022.002-.022.002-.022.002-.02v-.023l.002-.022v-.022l.002-.022V38.892l-.002-.02v-.023l-.002-.022-.002-.022-.002-.022-.002-.02-.003-.023-.003-.022-.003-.022-.003-.022-.004-.02-.004-.02-.004-.022-.004-.02-.005-.022-.005-.02-.005-.022-.005-.02-.006-.022-.006-.02-.006-.022-.006-.02-.007-.022-.007-.02-.007-.02-.007-.022-.008-.02-.008-.02-.008-.02-.008-.02-.01-.02-.008-.02-.01-.02-.008-.02-.01-.02-.01-.02-.01-.018-.01-.02-.01-.018-.01-.02-.01-.018-.012-.02-.01-.018-.013-.02-.012-.017-.01-.018-.013-.02-.012-.017-.013-.018-.013-.018-.014-.017-.013-.017-.013-.017-.014-.017-.014-.018-.014-.017-.014-.017-.015-.016-.016-.016-.015-.016-.016-.016-.015-.016-.017-.016-.016-.015-.016-.015-.015-.015-.016-.015-.018-.015-.017-.014-.017-.014-.017-.015-.017-.014-.018-.013-.018-.013-.018-.013-.02-.012-.017-.013-.02-.013-.018-.012-.02-.012-.018-.012-.02-.012-.02-.012-.02-.01-.02-.012-.02-.01-.02-.012-.022-.01-.02-.01-.025-.012-34.34-16.005-.024-.01-.022-.01-.022-.01-.02-.008-.023-.01-.023-.007-.022-.008-.022-.008-.022-.008-.02-.007-.023-.007-.022-.007-.022-.005-.022-.006-.02-.007-.023-.005-.022-.005-.022-.005-.022-.005-.02-.004-.023-.005-.022-.004-.022-.002-.022-.003-.02-.003-.023-.003-.022-.003-.022-.002-.022-.002h-.02l-.023-.002h-.175l-.02.002h-.023l-.022.003-.022.002-.022.002-.02.002-.023.003-.022.003-.02.003-.022.005-.02.004-.022.003-.02.004-.02.005-.022.005-.02.005-.022.005-.02.006-.022.006-.02.005-.022.006-.02.008-.022.007-.02.007-.02.007-.02.006-.02.008-.02.008-.02.008-.02.008-.02.01-.02.008-.02.01-.02.008-.02.01-.02.01-.018.01-.02.01-.018.01-.02.012-.018.01-.02.012-.017.012-.02.012-.017.012-.018.012-.018.012-.018.013-.02.014-.016.013-.017.013-.017.013-.017.014-.017.014-.017.015-.018.014-.016.014-.016.015-.016.014-.016.015-.016.014-.016.016-.015.016-.014.016-.015.016-.014.016-.015.017-.014.018-.014.017-.014.017-.014.018-.014.018-.013.018-.013.018-.013.018-.012.02-.013.018-.005.02-.012.02-.012.018-.012.02-.012.02-.01.02-.012.02-.01.02-.012.022-.01.02-.01.022-.01.024L704.7 45.08l-2.86-1.334-.016-.007-.01-.006-.012-.004-.01-.004-.012-.004-.01-.003-.012-.004-.01-.003-.012-.002h-.01l-.012-.003-.01-.002h-.012l-.01-.002h-.078l-.01.002h-.012l-.01.003-.012.002-.01.002-.012.002-.01.003-.01.003-.01.003-.01.003-.01.004-.01.004-.01.004-.01.004-.01.005-.01.005-.01.005-.01.005-.01.005-.008.006-.01.006-.008.005-.01.006-.008.008-.01.007-.007.007-.008.007-.01.006-.007.008-.008.008-.008.008-.007.008-.007.01-.007.008-.007.01-.008.008-.006.01-.006.01-.006.01-.006.01-.006.01-.005.01-.008.017-.377.807-.007.016-.005.01-.003.012-.004.01-.004.012-.004.01-.003.012-.003.01-.002.01-.002.012-.002.01-.002.012v.01l-.002.012v.01l-.002.012v.054l.002.012v.01l.003.012.002.01.002.012.002.01.002.012.003.01.003.012.003.01.005.01.004.01.003.01.004.01.005.01.005.01.005.01.005.01.005.01.006.01.006.008.006.01.006.008.007.01.007.008.007.008.007.008.007.008h.016z"/><path fill="none" stroke="#FFF" stroke-width="1.5" stroke-linecap="square" stroke-miterlimit="1.414" d="M704.89 44.67l38.436 17.923"/><path opacity=".4" fill-rule="evenodd" clip-rule="evenodd" fill="#FFF" d="M717.23 23.544l-9.15 19.626 33.527 15.635 9.152-19.626-33.53-15.636zm-1.09-2.998L705.08 44.26 742.7 61.803l11.06-23.715-37.618-17.54z"/><path fill="none" stroke="#FFF" stroke-width="1.5" stroke-miterlimit="1.414" d="M750.378 39.996c.21-.452.015-.988-.436-1.2l-31.893-14.87c-.453-.212-.99-.016-1.2.435l-8.39 17.992c-.21.452-.014.988.437 1.2l31.893 14.87c.452.212.988.016 1.2-.435l8.388-17.99z"/><path fill="none" stroke="#FFF" stroke-width="1.5" stroke-linecap="round" stroke-miterlimit="1.414" d="M740.128 34.22l-28.75 10.466M737.266 32.887L725.5 37.17M723.477 37.906l-2.527.92"/></g><g><path opacity=".4" fill-rule="evenodd" clip-rule="evenodd" fill="#FFF" d="M545.786 18.26l3.67-11.21-12.04 14.478 4.52.797-3.67 11.21 12.038-14.477"/><path fill="none" stroke="#FFF" stroke-width="2" stroke-linecap="round" stroke-linejoin="round" stroke-miterlimit="1.414" d="M545.786 18.26l3.67-11.21-12.04 14.478 4.52.797-3.67 11.21 12.038-14.477z"/></g><g><path fill-rule="evenodd" clip-rule="evenodd" fill="#FFF" d="M508.36 30.907l-2.047-2.176-.48 2.95-2.703 1.276 2.656 1.37.378 2.963 2.123-2.104 2.936.557-1.344-2.67 1.435-2.62"/></g><g><path fill-rule="evenodd" clip-rule="evenodd" fill="#FFF" d="M217.956 54.245l-2.05-2.176-.48 2.948-2.702 1.276 2.656 1.37.378 2.963 2.123-2.103 2.937.556-1.344-2.67 1.436-2.62"/></g><g><path fill-rule="evenodd" clip-rule="evenodd" fill="#FFF" d="M741.86 95.907l-2.047-2.176-.48 2.95-2.703 1.276 2.656 1.37.378 2.963 2.123-2.104 2.936.557-1.344-2.67 1.435-2.62"/></g><g><path fill-rule="evenodd" clip-rule="evenodd" fill="#FFF" d="M649.452 85.658l-2.048-2.176-.48 2.95-2.703 1.275 2.657 1.37.378 2.964 2.123-2.102 2.936.556-1.344-2.67 1.436-2.62"/></g><g><path fill-rule="evenodd" clip-rule="evenodd" fill="#FFF" d="M311.86 29.38l-2.048-2.177-.48 2.95-2.703 1.275 2.655 1.37.378 2.964 2.123-2.104 2.936.557-1.344-2.67 1.436-2.62"/></g><g><path fill-rule="evenodd" clip-rule="evenodd" fill="#FFF" d="M72.332 84.28l-2.048-2.177-.48 2.95-2.704 1.275 2.656 1.37.378 2.963 2.123-2.102 2.936.556-1.344-2.67 1.436-2.62"/></g><g><path fill-rule="evenodd" clip-rule="evenodd" fill="#FFF" d="M429.912 8.586l2.852 6.118-6.117 2.852-2.853-6.117z"/></g><g><path fill-rule="evenodd" clip-rule="evenodd" fill="#FFF" d="M552.077 57.417l2.853 6.117-6.118 2.853-2.853-6.118z"/></g><g><path fill-rule="evenodd" clip-rule="evenodd" fill="#FFF" d="M186.916 7.088l2.852 6.118-6.117 2.853-2.852-6.12z"/></g><g><path fill-rule="evenodd" clip-rule="evenodd" fill="#FFF" d="M484.08 67.903l6.532 3.78.41-6.737"/></g><g><path fill-rule="evenodd" clip-rule="evenodd" fill="#FFF" d="M266.21 82.452l6.53 3.78.412-6.736"/></g><g><circle fill-rule="evenodd" clip-rule="evenodd" fill="#FFF" cx="21.452" cy="165.755" r="3"/></g><g><circle fill-rule="evenodd" clip-rule="evenodd" fill="#FFF" cx="123.786" cy="65.325" r="3"/></g><g><path fill-rule="evenodd" clip-rule="evenodd" fill="#FFF" d="M389.952 70.825l-2.048-2.176-.48 2.948-2.703 1.276 2.657 1.37.378 2.963 2.123-2.103 2.936.557-1.344-2.668 1.436-2.62"/></g><g><circle fill="none" stroke="#FFF" stroke-width="3.139" cx="331.757" cy="67.093" r="11.237"/><path opacity=".4" fill="#FFF" d="M326.62 68.492c-.09 4.145 2.083 7.805 5.38 9.824-.16.003-.32.018-.485.014-6.205-.134-11.126-5.272-10.992-11.476.134-6.205 5.272-11.126 11.477-10.992 2.06.044 3.97.65 5.61 1.653-5.983.126-10.86 4.936-10.99 10.977z"/><circle fill="#FFF" cx="310.092" cy="74.337" r="3.361"/><path fill="none" stroke="#FFF" stroke-width="3.139" stroke-linecap="round" stroke-linejoin="round" stroke-miterlimit="10" d="M319.157 53.526l26.33 26.332"/></g><g><g fill="#FFF"><path d="M16.766 119.905c2.33-2.12 5.444-3.144 8.637-2.773 3.193.37 5.99 2.078 7.774 4.677l-16.41-1.905z"/><path d="M25.288 118.125c2.05.238 3.92 1.082 5.412 2.39l-11.227-1.303c1.753-.93 3.766-1.325 5.815-1.087m.23-1.987c-4.305-.5-8.33 1.355-10.823 4.533l20.323 2.358c-1.698-3.664-5.194-6.39-9.5-6.89z"/></g><path fill="#FFF" d="M29.894 84.13c.782.09 1.556.53 2.07 1.178l2.42 3.057.332.42.488.22 9.29 4.186-12.548 9.94-1.824-9.553-.095-.495-.3-.404-2.66-3.583-.02-.027-.022-.027c-.485-.61-.682-1.342-.586-2.17.09-.787.527-1.557 1.173-2.067.65-.512 1.5-.764 2.28-.674m.255-2.186c-1.367-.16-2.806.27-3.9 1.136-1.092.86-1.833 2.165-1.992 3.537-.16 1.37.18 2.698 1.047 3.792l2.66 3.582 2.034 10.647c.14.51.486.947.967 1.104l.39.045c.394.045.803-.106 1.122-.268l14.308-11.334c.437-.346.59-.822.55-1.326-.044-.5-.39-.937-.855-1.19L36.11 87l-2.42-3.058c-.868-1.093-2.17-1.84-3.542-1.998z"/><path opacity=".4" fill="#FFF" d="M36.717 101.484c-.32.16-.728.312-1.12.267l-.392-.044c-.48-.157-.827-.594-.967-1.105l-2.033-10.646-2.66-3.583c-.866-1.092-1.206-2.42-1.047-3.79.032-.274.103-.54.18-.806-.868.16-1.707.507-2.402 1.058-1.093.86-1.834 2.165-1.993 3.536-.16 1.37.18 2.7 1.047 3.792l2.66 3.583 2.033 10.647c.14.51.486.948.967 1.105l.39.045c.394.046.803-.105 1.122-.267l4.215-3.79z"/><circle fill="none" stroke="#FFF" stroke-width="2" stroke-linecap="round" stroke-linejoin="round" stroke-miterlimit="10" cx="13.526" cy="101.817" r="2.5"/><path fill="none" stroke="#FFF" stroke-width="2.5" stroke-linecap="round" stroke-linejoin="round" stroke-miterlimit="10" d="M24.008 116.32l-9.244-11.67M26.554 90.75L15.43 99.56"/><path fill="none" stroke="#FFF" stroke-linecap="round" stroke-linejoin="round" stroke-miterlimit="10" d="M35.44 87.92l-7.06 5.592"/><path fill="none" stroke="#FFF" stroke-width="2" stroke-linecap="round" stroke-linejoin="round" stroke-miterlimit="10" d="M42.55 96.14l-4.765-3.022"/></g><g><path fill="#FFF" d="M228.286 100.965c0 .506-.41.916-.916.916s-.916-.41-.916-.915.41-.916.916-.916c.505-.002.916.41.916.915zm0 0M228.286 106.2c0 .507-.41.917-.916.917s-.916-.41-.916-.916c0-.505.41-.915.916-.915.505 0 .916.41.916.916zm0 0M230.904 103.583c0 .506-.41.916-.916.916s-.916-.41-.916-.917c0-.506.41-.916.916-.916.505 0 .916.41.916.916zm0 0M225.667 103.583c0 .506-.41.916-.916.916s-.915-.41-.915-.917c0-.506.41-.916.916-.916s.917.41.917.916zm0 0M212.622 100.048h-1.924v2.572h-2.572v1.924h2.572v2.572h1.924v-2.572h2.572v-1.924h-2.572v-2.572zm0 0M218.52 106.73c0-.274.224-.5.5-.5h.99c.275 0 .5.226.5.5 0 .276-.225.5-.5.5h-.99c-.276 0-.5-.224-.5-.5zM218.514 104.728c0-.275.225-.5.5-.5h1c.275 0 .5.225.5.5v.005c0 .275-.225.5-.5.5h-1c-.275 0-.5-.225-.5-.5v-.005z"/><path opacity=".4" fill="#FFF" d="M207.995 111.533h23.04c1.173 0 2.128-.954 2.128-2.128v-2.5c0 1.173-.954 2.128-2.128 2.128h-23.04c-1.173 0-2.128-.954-2.128-2.128v2.5c0 1.174.954 2.128 2.128 2.128z"/><path fill="#FFF" d="M231.034 98.53c1.173 0 2.127.956 2.127 2.128v7.854c0 1.173-.954 2.128-2.126 2.128h-23.04c-1.173 0-2.127-.955-2.127-2.128v-7.854c0-1.173.955-2.127 2.127-2.127h23.04m0-2.5h-23.04c-2.552 0-4.627 2.077-4.627 4.628v7.854c0 2.552 2.076 4.628 4.627 4.628h23.04c2.552 0 4.627-2.076 4.627-4.628v-7.854c.002-2.55-2.074-4.627-4.626-4.627z"/><path fill="none" stroke="#FFF" stroke-width="2" stroke-linecap="round" stroke-linejoin="round" stroke-miterlimit="10" d="M219.992 97.524v-4c0-2.2 1.8-4 4-4h6.625c2.2 0 4-1.8 4-4v-.25c0-2.2-1.8-4-4-4h-17.25c-2.2 0-4-1.378-4-3.062V75.15"/></g><g><g opacity=".4"><path fill="#FFF" d="M434.702 66.412l18.34-18.34 2.87 2.872-14.224 14.224c-1.982 1.98-4.863 2.42-6.986 1.244z"/><path fill="none" stroke="#FFF" stroke-width=".912" stroke-miterlimit="10" d="M434.702 66.412l18.34-18.34 2.87 2.872-14.224 14.224c-1.982 1.98-4.863 2.42-6.986 1.244z"/></g><path fill="#FFF" d="M437.553 73.814l-12.248-12.248 5.17-5.17c2.28-.506 4.38-1.67 6.087-3.377 1.708-1.71 2.87-3.808 3.38-6.09l5.168-5.17 12.248 12.25-5.253 5.252c-2.234.524-4.284 1.675-5.954 3.345-1.67 1.672-2.823 3.724-3.343 5.953l-5.254 5.254m-.86 2.363c.475.475 1.244.475 1.72 0l6.223-6.224c.168-.168.284-.38.333-.615.39-1.917 1.36-3.686 2.792-5.12 1.434-1.434 3.203-2.4 5.122-2.795.232-.047.445-.163.613-.33l6.225-6.225c.475-.475.475-1.244 0-1.72L445.97 39.4c-.475-.475-1.244-.475-1.72 0l-6.146 6.147c-.17.17-.285.39-.332.628-.38 1.958-1.355 3.768-2.82 5.234-1.465 1.465-3.275 2.44-5.232 2.82-.24.046-.46.162-.63.333l-6.147 6.147c-.475.475-.475 1.244 0 1.72l13.75 13.75z"/><path fill="none" stroke="#FFF" stroke-width=".912" stroke-miterlimit="10" d="M455.91 50.943l-14.223 14.224c-2.35 2.35-5.97 2.54-8.083.425l-.077-.077c-2.115-2.115-1.924-5.734.425-8.083l14.224-14.224 7.735 7.735zM453.09 48.123l-18.37 18.372"/><path opacity=".4" fill="#FFF" d="M442.954 55.245c.59-.425.59-1.29 0-1.713-.36-.257-.854-.258-1.212 0-.592.423-.592 1.29 0 1.714.358.257.854.257 1.212 0z"/><path fill="none" stroke="#FFF" stroke-width=".912" stroke-miterlimit="10" d="M442.954 55.245c.59-.425.59-1.29 0-1.713-.36-.257-.854-.258-1.212 0-.592.423-.592 1.29 0 1.714.358.257.854.257 1.212 0z"/></g><g><path fill-rule="evenodd" clip-rule="evenodd" fill="#FFF" d="M668.71 39.452l6.53 3.78.412-6.736"/></g><g><path fill-rule="evenodd" clip-rule="evenodd" fill="#FFF" d="M158.876 95.12l6.53 3.78.413-6.738"/></g><g><path fill-rule="evenodd" clip-rule="evenodd" fill="#FFF" d="M29.542 49.12l6.532 3.78.412-6.738"/></g><g><path fill-rule="evenodd" clip-rule="evenodd" fill="#FFF" d="M749.27 129.947h-.096l-.096.003-.096.002-.096.003-.096.003-.096.004-.095.005-.096.005-.095.006-.096.006-.095.007-.096.008-.094.008-.094.01-.094.008-.094.01-.094.01-.094.01-.093.013-.093.012-.093.012-.092.013-.093.014-.092.013-.092.015-.09.015-.093.016-.092.016-.09.017-.092.018-.09.02-.092.018-.09.02-.09.02-.09.02-.09.02-.09.022-.09.022-.09.023-.09.023-.088.024-.09.024-.088.025-.088.026-.088.026-.088.026-.088.027-.087.027-.087.028-.087.03-.086.028-.086.03-.086.03-.086.03-.086.032-.085.032-.085.032-.085.033-.085.033-.084.034-.084.034-.084.035-.084.035-.083.036-.082.036-.083.037-.083.037-.082.037-.082.04-.082.037-.08.04-.082.04-.08.04-.082.04-.08.04-.08.04-.08.043-.08.042-.08.043-.078.043-.08.044-.077.044-.078.045-.08.046-.077.046-.077.046-.077.046-.078.047-.076.048-.076.048-.076.048-.075.05-.076.048-.075.05-.076.05-.074.05-.074.05-.074.052-.073.052-.074.052-.072.053-.072.054-.072.054-.072.054-.07.054-.072.055-.07.056-.07.056-.07.056-.07.056-.07.057-.068.058-.07.058-.067.058-.067.058-.068.06-.067.058-.067.06-.065.06-.066.06-.067.06-.065.062-.065.062-.065.062-.064.062-.064.063-.063.064-.063.064-.063.064-.06.064-.063.064-.062.065-.06.065-.062.066-.06.066-.06.066-.06.067-.06.067-.06.067-.058.067-.058.068-.058.07-.058.068-.057.07-.056.07-.057.07-.056.07-.055.07-.055.072-.054.07-.054.073-.054.072-.053.072-.053.073-.052.073-.052.073-.05.075-.052.074-.05.073-.05.074-.05.075-.05.075-.048.075-.048.076-.048.076-.047.077-.047.078-.046.077-.046.077-.045.077-.046.077-.045.078-.045.08-.044.078-.042.08-.043.078-.043.08-.042.08-.04.08-.042.082-.04.08-.04.082-.04.08-.038.082-.04.082-.037.082-.037.082-.037.083-.037.083-.036.083-.036.085-.034.083-.034.084-.034.084-.034.085-.033.086-.032.085-.032.086-.032.086-.03.086-.03.086-.03.086-.03.087-.03.086-.03.087-.027.087-.027.087-.027.088-.026.088-.026.088-.024.088-.026.084-.024.09-.024.088-.023.09-.024.088-.022.09-.022.09-.02.09-.022.09-.02.09-.02.09-.018.092-.018.09-.018.093-.017.092-.018.092-.016.092-.015.092-.014.092-.014.092-.014.092-.013.093-.013.093-.012.093-.012.093-.01.094-.01.094-.01.094-.01.094-.01.094-.007.094-.006.095-.007.095-.006.095-.005.095-.005.095-.005.095-.004.096-.002.096-.003.096-.002.096-.002.096v.389l.003.096.002.096.003.096.003.096.005.096.005.095.005.095.006.095.007.095.007.095.007.095.01.094.008.094.01.094.01.094.01.094.01.094.012.093.012.093.013.093.013.094.014.092.014.092.015.092.016.092.016.092.017.092.016.09.018.093.018.09.02.09.018.092.02.09.02.09.022.09.022.09.022.09.023.09.022.088.024.09.024.088.025.088.025.088.026.088.026.088.027.088.026.087.028.087.03.087.028.085.03.087.03.086.03.086.03.086.033.086.032.085.033.086.033.085.034.086.034.084.035.084.035.083.036.084.036.084.036.083.037.083.037.082.038.082.04.082.038.08.04.082.04.08.04.082.04.08.04.08.043.08.044.08.043.08.043.08.044.078.044.08.045.077.045.078.045.077.046.077.045.077.047.077.047.078.047.076.048.076.05.075.048.075.05.075.05.074.05.073.05.074.052.074.052.074.052.073.052.073.053.072.053.072.054.072.054.07.055.072.056.07.056.072.056.07.056.07.057.068.058.07.058.068.058.068.06.068.058.067.06.066.06.067.06.066.06.065.06.066.062.066.062.065.062.065.062.064.063.063.063.064.063.063.063.063.064.062.065.062.065.062.065.06.066.06.066.06.066.06.067.06.067.06.068.06.068.057.068.058.07.058.068.057.07.057.068.056.07.056.07.055.07.055.072.055.07.054.073.053.07.054.073.053.072.053.073.052.073.052.075.05.074.052.073.05.075.05.075.05.075.048.075.05.076.047.075.048.076.047.078.047.077.046.077.046.078.045.078.045.078.045.078.044.08.043.078.043.08.043.08.04.08.043.08.04.08.042.08.04.08.04.082.04.08.04.083.037.082.038.08.038.084.037.083.037.083.036.083.036.084.035.084.034.085.034.084.034.084.033.085.033.084.032.085.032.085.03.086.032.087.03.086.03.087.03.087.028.087.028.087.027.09.027.087.026.088.026.088.025.09.026.088.024.09.024.09.023.088.023.09.022.09.022.09.02.09.02.09.02.09.02.092.02.09.017.092.02.09.016.093.017.092.016.092.015.09.015.093.014.093.014.093.013.092.014.093.012.093.012.094.01.094.01.094.01.094.01.094.01.094.007.095.007.095.007.095.005.095.006.095.006.095.005.096.005.096.003.096.003.096.003.096.002h.386l.096-.002.096-.002.096-.002.096-.003.096-.004.095-.004.095-.005.095-.005.095-.006.095-.008.095-.007.094-.008.094-.01.094-.008.094-.01.094-.01.094-.012.093-.012.093-.012.093-.013.094-.012.093-.014.092-.014.09-.015.093-.016.092-.017.092-.017.09-.017.092-.02.09-.017.09-.02.092-.018.09-.02.09-.02.09-.02.09-.023.09-.022.09-.023.088-.023.09-.024.088-.024.09-.025.087-.024.088-.026.088-.026.09-.027.086-.027.087-.028.087-.03.087-.028.086-.03.086-.03.085-.03.086-.032.086-.032.085-.032.086-.033.085-.033.085-.034.084-.034.083-.035.084-.036.083-.036.083-.036.083-.037.083-.037.08-.038.083-.038.082-.038.08-.04.082-.04.08-.04.082-.04.08-.04.08-.04.08-.043.08-.04.078-.044.08-.043.078-.044.078-.045.078-.045.078-.045.078-.046.077-.047.077-.046.077-.047.075-.047.076-.048.077-.048.075-.05.075-.048.075-.05.075-.05.074-.05.075-.052.074-.05.072-.053.073-.052.072-.053.072-.053.07-.054.073-.054.07-.055.072-.055.07-.055.07-.056.07-.057.07-.056.07-.057.068-.057.07-.058.067-.058.068-.058.068-.06.067-.06.067-.06.066-.06.066-.06.066-.06.065-.06.065-.063.065-.062.064-.062.064-.063.064-.063.063-.064.063-.064.062-.065.062-.064.062-.064.06-.065.062-.065.06-.066.06-.067.06-.067.06-.067.06-.068.058-.068.058-.068.058-.07.057-.068.056-.07.056-.068.056-.07.056-.07.055-.072.054-.07.054-.072.054-.072.053-.072.053-.072.053-.073.053-.073.052-.073.05-.073.052-.074.05-.074.05-.075.05-.075.05-.075.05-.075.047-.076.048-.076.047-.077.046-.076.046-.077.046-.077.045-.077.045-.078.045-.078.044-.08.044-.078.044-.08.043-.08.043-.08.042-.08.04-.08.042-.08.04-.08.04-.082.04-.08.038-.082.04-.082.037-.082.036-.082.037-.083.036-.083.035-.083.036-.083.036-.083.034-.084.034-.084.034-.085.033-.084.034-.085.032-.084.032-.086.03-.086.03-.086.03-.086.03-.087.03-.086.03-.088.027-.087.027-.087.027-.088.025-.088.026-.088.026-.088.025-.088.025-.09.024-.088.022-.09.023-.088.022-.09.022-.09.02-.09.02-.09.02-.09.02-.09.018-.092.018-.09.018-.093.017-.09.018-.093.016-.092.015-.092.014-.092.014-.092.014-.092.013-.093.013-.092.012-.093.012-.093.01-.094.01-.094.01-.094.01-.094.01-.094.007-.094.006-.095.007-.095.006-.095.005-.095.005-.095.005-.095.004-.096.002-.096.003-.096.002-.096.002-.096v-.387l-.003-.096-.002-.096-.003-.096-.003-.096-.005-.096-.005-.095-.005-.095-.006-.095-.007-.095-.007-.095-.007-.095-.01-.094-.008-.094-.01-.094-.01-.094-.01-.094-.01-.094-.012-.093-.012-.093-.013-.093-.013-.093-.014-.092-.014-.092-.015-.092-.016-.092-.016-.092-.017-.092-.016-.09-.018-.093-.018-.092-.02-.09-.018-.092-.02-.09-.02-.09-.02-.09-.023-.09-.022-.09-.023-.09-.023-.088-.025-.09-.024-.088-.024-.088-.025-.088-.025-.088-.026-.088-.028-.088-.027-.087-.028-.087-.03-.087-.028-.087-.03-.087-.03-.086-.03-.086-.032-.086-.032-.086-.032-.085-.033-.085-.032-.085-.034-.085-.034-.084-.034-.084-.035-.083-.035-.083-.036-.083-.037-.083-.037-.082-.037-.082-.04-.082-.038-.082-.04-.08-.038-.082-.04-.08-.04-.082-.04-.08-.042-.08-.042-.08-.043-.08-.043-.08-.043-.08-.043-.078-.044-.08-.045-.077-.045-.078-.045-.077-.046-.077-.046-.076-.047-.077-.048-.077-.048-.076-.048-.076-.05-.075-.048-.075-.05-.075-.05-.074-.05-.075-.052-.074-.05-.073-.053-.073-.052-.073-.052-.072-.053-.072-.053-.072-.054-.072-.054-.07-.055-.072-.056-.07-.056-.072-.056-.07-.056-.07-.057-.07-.058-.068-.057-.07-.058-.067-.06-.068-.058-.067-.06-.067-.06-.066-.06-.066-.06-.066-.062-.066-.06-.065-.063-.064-.062-.064-.062-.064-.062-.064-.063-.064-.063-.063-.064-.063-.064-.062-.065-.062-.066-.062-.065-.06-.067-.062-.066-.06-.066-.06-.066-.06-.067-.06-.068-.058-.07-.058-.067-.058-.07-.058-.068-.057-.07-.057-.068-.056-.07-.056-.07-.056-.07-.055-.072-.055-.07-.054-.073-.054-.072-.054-.072-.053-.072-.053-.073-.052-.073-.052-.074-.05-.074-.052-.074-.05-.075-.05-.075-.05-.075-.05-.075-.048-.076-.048-.076-.048-.076-.047-.077-.047-.077-.046-.077-.046-.08-.046-.077-.045-.078-.045-.078-.044-.08-.044-.078-.043-.08-.042-.08-.042-.08-.042-.08-.04-.08-.042-.08-.04-.082-.04-.08-.04-.082-.04-.082-.037-.082-.038-.082-.037-.083-.037-.083-.037-.083-.036-.082-.036-.084-.035-.084-.036-.084-.034-.084-.034-.085-.033-.085-.033-.085-.032-.085-.032-.086-.03-.086-.032-.086-.03-.086-.03-.087-.03-.086-.028-.087-.028-.087-.027-.088-.026-.088-.026-.088-.026-.088-.025-.09-.025-.088-.024-.09-.024-.088-.023-.09-.022-.09-.022-.09-.022-.09-.02-.09-.02-.09-.02-.09-.02-.092-.02-.09-.017-.092-.018-.09-.018-.093-.017-.092-.016-.092-.016-.09-.015-.093-.015-.093-.014-.093-.012-.092-.013-.093-.012-.093-.012-.094-.01-.094-.01-.094-.01-.094-.01-.094-.008-.094-.008-.095-.007-.095-.007-.095-.006-.095-.006-.095-.005-.095-.005-.096-.004-.096-.003-.096-.002-.096-.002-.096-.002h-.193l-.095.003zm.21-2.593h.113l.113.003.113.003.11.003.113.004.112.005.112.005.112.006.11.007.112.007.11.008.112.01.11.008.112.01.11.01.11.012.11.012.11.013.11.014.11.014.108.015.11.016.108.015.11.017.107.018.107.018.108.02.108.02.108.02.108.02.107.022.107.022.106.023.106.023.106.024.106.025.106.025.105.026.105.027.105.027.104.028.105.03.104.028.103.03.104.03.103.032.103.032.103.032.102.033.102.033.102.034.102.035.1.034.102.036.1.037.102.037.1.038.1.038.1.04.1.038.098.04.1.04.097.042.098.042.1.042.096.043.097.044.097.045.096.045.096.045.096.046.095.047.095.047.095.047.095.05.094.048.094.05.094.05.093.05.093.05.092.05.092.053.092.053.09.053.092.053.09.053.09.055.09.055.09.056.09.055.09.057.088.057.088.057.088.058.087.06.087.058.087.06.085.06.086.06.087.062.085.062.085.062.084.062.085.063.084.064.082.063.083.065.082.065.082.066.08.065.082.067.08.067.08.067.08.068.08.068.08.07.08.068.077.07.077.07.078.072.077.07.077.073.075.072.076.073.076.073.075.074.075.074.074.075.072.075.073.075.073.076.072.077.072.077.07.077.072.078.07.078.07.078.07.08.07.078.067.08.07.08.067.08.067.08.067.08.067.083.066.082.065.082.065.082.064.083.064.084.064.083.063.084.062.085.06.085.062.086.06.086.06.085.06.087.06.087.06.087.057.088.057.088.057.09.057.088.057.09.055.09.055.09.055.09.054.09.054.092.053.092.052.092.052.092.05.092.052.093.05.093.05.093.048.093.05.094.042.093.048.095.047.095.046.096.047.096.045.096.045.097.044.097.044.097.043.097.042.098.04.098.042.1.04.098.04.1.04.1.04.1.037.1.037.1.037.1.036.1.036.1.035.102.036.102.034.102.033.102.033.102.032.102.032.103.03.103.03.104.03.104.03.104.028.104.028.104.027.105.027.105.026.105.025.105.026.106.024.106.023.106.023.106.022.107.022.106.02.107.02.107.02.108.02.108.018.108.018.108.017.108.016.11.015.108.015.11.014.11.014.11.013.11.013.11.012.11.01.11.01.11.01.112.01.11.007.112.007.11.006.113.006.112.005.112.005.11.004.113.003.112v.112l.003.113v.451l-.002.113v.112l-.004.112-.004.11-.005.113-.005.112-.006.112-.007.112-.008.11-.008.11-.01.112-.008.11-.01.112-.01.11-.013.11-.012.11-.012.11-.014.11-.014.11-.015.108-.016.11-.017.108-.017.108-.018.108-.018.108-.02.108-.02.108-.02.107-.02.107-.022.107-.022.108-.023.106-.023.106-.024.106-.025.106-.024.105-.026.105-.027.105-.027.105-.028.104-.028.104-.03.104-.03.104-.03.104-.03.103-.032.103-.032.102-.033.102-.033.102-.034.102-.035.102-.034.1-.036.102-.036.1-.037.1-.038.1-.04.1-.038.1-.04.1-.04.1-.04.098-.04.1-.043.097-.043.098-.043.098-.043.098-.043.097-.045.097-.045.096-.046.096-.045.096-.047.095-.048.092-.048.094-.05.095-.048.094-.05.092-.05.093-.05.093-.052.092-.052.092-.052.092-.053.092-.054.09-.053.092-.055.09-.055.09-.055.09-.056.09-.057.088-.058.09-.058.087-.058.088-.06.09-.058.086-.06.087-.06.086-.06.085-.062.086-.062.086-.062.085-.063.085-.064.084-.064.083-.064.083-.065.083-.065.08-.066.083-.066.082-.067.08-.068.082-.068.08-.068.08-.068.08-.07.078-.068.08-.07.077-.07.078-.072.077-.07.077-.073.077-.072.077-.073.076-.073.075-.073.075-.074.074-.074.074-.075.075-.074.073-.076.073-.076.073-.077.072-.077.07-.078.072-.078.07-.078.07-.08.07-.078.07-.08.067-.08.068-.08.068-.08.067-.082.067-.082.066-.082.066-.082.065-.083.066-.083.064-.084.064-.084.063-.084.063-.085.062-.085.062-.086.06-.086.062-.086.06-.087.06-.087.06-.087.058-.088.058-.088.058-.09.057-.088.057-.09.056-.09.056-.09.055-.09.056-.09.054-.092.053-.09.053-.093.052-.092.052-.092.05-.092.052-.093.05-.094.05-.093.05-.094.048-.095.048-.095.047-.095.047-.095.046-.096.046-.096.045-.095.044-.097.044-.097.044-.096.043-.098.042-.098.042-.098.04-.1.04-.098.04-.1.04-.1.04-.1.037-.1.038-.1.037-.1.037-.102.035-.1.035-.103.035-.102.034-.102.032-.102.033-.102.032-.103.032-.103.03-.104.03-.104.03-.104.03-.104.03-.104.027-.105.027-.105.027-.105.027-.106.025-.105.025-.106.024-.107.024-.106.023-.107.022-.107.02-.107.022-.108.02-.108.02-.108.02-.108.017-.108.017-.11.017-.108.016-.11.016-.108.015-.11.015-.11.014-.11.012-.11.012-.11.01-.11.012-.11.01-.11.01-.112.008-.11.008-.112.007-.112.006-.112.006-.112.005-.112.005-.112.004-.112.003-.113.002-.112.002h-.453l-.113-.002-.113-.003-.112-.004-.112-.004-.112-.005-.112-.005-.112-.006-.112-.007-.11-.008-.112-.008-.11-.01-.112-.008-.11-.01-.11-.01-.11-.012-.11-.012-.11-.013-.11-.015-.11-.014-.11-.014-.108-.016-.11-.016-.108-.017-.108-.018-.108-.02-.108-.018-.108-.02-.108-.02-.107-.02-.106-.023-.107-.023-.106-.023-.105-.023-.106-.023-.107-.025-.106-.025-.105-.026-.105-.026-.105-.027-.105-.028-.104-.03-.104-.03-.105-.03-.104-.03-.102-.03-.103-.033-.103-.032-.102-.033-.102-.033-.102-.035-.102-.035-.1-.035-.102-.036-.1-.038-.102-.037-.1-.038-.1-.038-.1-.04-.1-.04-.098-.04-.1-.04-.097-.04-.098-.043-.098-.042-.098-.043-.097-.044-.097-.044-.096-.045-.096-.046-.096-.046-.095-.046-.095-.047-.095-.047-.095-.048-.094-.05-.094-.048-.094-.05-.093-.05-.093-.05-.092-.052-.092-.052-.092-.052-.09-.053-.092-.053-.09-.054-.09-.055-.09-.054-.09-.056-.09-.056-.09-.057-.088-.057-.088-.058-.088-.058-.087-.06-.087-.058-.087-.06-.087-.06-.086-.06-.086-.062-.084-.062-.085-.062-.083-.063-.084-.063-.084-.064-.084-.064-.083-.065-.082-.064-.08-.066-.083-.066-.08-.067-.082-.067-.08-.068-.08-.068-.08-.068-.08-.07-.078-.07-.078-.07-.08-.07-.077-.07-.077-.07-.077-.073-.077-.072-.076-.072-.075-.073-.075-.074-.074-.073-.074-.074-.074-.075-.073-.075-.073-.076-.072-.076-.072-.076-.07-.077-.072-.077-.07-.078-.07-.078-.07-.08-.07-.078-.068-.08-.068-.08-.068-.08-.067-.08-.067-.08-.066-.083-.066-.082-.065-.08-.066-.084-.064-.083-.064-.084-.063-.085-.063-.084-.062-.084-.062-.085-.06-.085-.062-.086-.06-.087-.06-.087-.06-.087-.058-.09-.058-.087-.058-.088-.057-.09-.057-.088-.056-.09-.055-.09-.055-.09-.055-.09-.054-.09-.053-.09-.053-.093-.052-.092-.052-.092-.05-.092-.052-.093-.05-.093-.05-.093-.05-.095-.048-.094-.048-.093-.048-.095-.047-.095-.046-.096-.045-.095-.045-.096-.045-.098-.044-.097-.042-.097-.043-.098-.042-.098-.042-.098-.04-.1-.04-.098-.04-.1-.04-.098-.04-.1-.037-.1-.038-.1-.037-.1-.036-.1-.036-.102-.035-.1-.034-.103-.034-.102-.033-.1-.034-.103-.032-.102-.032-.103-.03-.103-.03-.105-.03-.104-.03-.103-.028-.104-.028-.104-.027-.106-.028-.105-.026-.106-.025-.105-.024-.107-.024-.106-.023-.106-.024-.105-.022-.107-.022-.107-.02-.106-.02-.107-.02-.108-.02-.11-.018-.107-.017-.108-.017-.108-.016-.11-.016-.108-.015-.11-.014-.11-.015-.11-.013-.108-.012-.11-.012-.11-.01-.11-.01-.112-.01-.11-.01-.112-.007-.11-.006-.112-.007-.112-.006-.112-.004-.112-.005-.112-.003-.112-.003-.112-.002-.112-.002-.113v-.453l.002-.113.002-.112.003-.112.004-.112.006-.112.005-.112.007-.112.007-.112.007-.11.01-.112.008-.11.01-.112.01-.11.01-.11.012-.112.012-.11.013-.11.014-.11.013-.11.015-.11.016-.108.016-.11.017-.107.017-.11.018-.107.02-.108.02-.108.02-.107.02-.107.022-.107.022-.107.023-.107.022-.106.024-.106.025-.105.026-.105.026-.105.027-.105.026-.105.028-.104.028-.103.03-.104.03-.104.03-.105.03-.103.032-.103.032-.103.033-.102.032-.102.034-.102.035-.1.036-.102.036-.1.036-.102.037-.1.038-.1.038-.1.04-.1.04-.1.04-.098.04-.1.04-.098.043-.098.042-.098.043-.098.043-.097.045-.098.045-.097.045-.096.046-.097.047-.096.047-.095.048-.095.048-.094.05-.094.048-.095.05-.093.05-.093.05-.094.052-.092.052-.092.052-.092.053-.092.054-.09.055-.092.055-.09.055-.09.055-.09.056-.09.057-.088.057-.09.058-.087.058-.087.06-.088.058-.087.06-.087.06-.085.06-.086.062-.087.062-.085.062-.085.063-.084.063-.085.064-.084.064-.082.065-.083.064-.082.066-.082.066-.08.067-.082.067-.08.068-.08.068-.08.068-.08.07-.08.07-.078.07-.078.07-.078.07-.077.072-.077.072-.077.072-.076.073-.076.073-.074.073-.075.073-.073.074-.074.075-.074.075-.074.076-.073.076-.072.076-.07.077-.072.078-.07.08-.07.077-.07.08-.07.078-.07.08-.067.08-.067.08-.068.08-.067.082-.067.082-.065.08-.066.083-.066.083-.065.083-.065.083-.064.084-.062.084-.063.086-.062.085-.062.087-.06.086-.06.086-.06.086-.06.087-.06.087-.06.088-.057.088-.058.09-.057.088-.057.09-.055.09-.056.09-.056.09-.055.09-.055.09-.053.092-.053.092-.053.092-.052.092-.05.093-.052.093-.05.094-.05.094-.05.094-.048.095-.048.095-.047.095-.047.095-.046.096-.046.096-.044.096-.045.097-.043.097-.044.097-.043.097-.042.098-.042.098-.04.1-.042.098-.04.1-.04.1-.038.1-.038.1-.038.1-.037.102-.037.1-.036.102-.035.102-.035.102-.034.102-.033.102-.033.103-.032.103-.032.103-.03.105-.032.104-.03.103-.03.104-.028.105-.028.105-.027.105-.026.105-.026.106-.025.106-.025.105-.024.106-.023.107-.022.107-.022.107-.022.108-.02.108-.02.108-.02.108-.02.108-.018.108-.018.11-.017.108-.015.11-.016.108-.016.11-.014.11-.014.11-.013.11-.012.11-.01.11-.01.11-.01.11-.01.112-.01.11-.007.112-.007.112-.007.112-.007.112-.005.112-.005.112-.004.112-.004.113-.003.113-.002h.225l.118.004z"/><circle fill="none" stroke="#FFF" stroke-width="1.5" stroke-miterlimit="1.414" cx="749.367" cy="144.854" r="1.944"/><circle fill="none" stroke="#FFF" stroke-width="1.5" stroke-miterlimit="1.414" cx="749.367" cy="144.854" r="4.537"/><path opacity=".4" fill-rule="evenodd" clip-rule="evenodd" fill="#FFF" d="M744.83 144.854c0-2.506 2.03-4.537 4.537-4.537.502 0 .984.08 1.435.232l3.69-11.072c-1.61-.537-3.334-.827-5.125-.827-8.95 0-16.204 7.256-16.204 16.205h11.667zm1.04 2.89c.262.317.567.598.906.834l-6.663 9.578c-1.21-.844-2.3-1.848-3.24-2.983l8.996-7.43zm6.886-5.907c-.237-.266-.505-.504-.798-.708l6.663-9.58c1.166.813 2.22 1.773 3.133 2.856l-8.997 7.43zm1.148 3.015v.002c0 2.506-2.03 4.537-4.537 4.537-.502 0-.984-.08-1.435-.23l-3.69 11.07c1.61.537 3.334.827 5.125.827 8.95 0 16.204-7.255 16.204-16.204v-.002h-11.666z"/><path fill="none" stroke="#FFF" stroke-width="1.5" stroke-linecap="round" stroke-miterlimit="1.414" d="M762.33 144.854c0 7.16-5.804 12.963-12.963 12.963M739.088 136.954c2.37-3.08 6.093-5.064 10.28-5.064M736.404 144.854c0-1.73.34-3.382.955-4.89"/></g><g fill="#FFF"><circle cx="58.778" cy="167.472" r="1.283"/><path d="M56.82 154.302c-.057.097-.104.2-.13.31-.035.143-.042.295-.018.45l1.352 8.296c.01.052.03.097.045.146-.04.253-.02.52.084.774.303.74 1.15 1.097 1.89.795.232-.094.42-.246.57-.426.04-.02.08-.042.118-.064l.06-.03c.005-.006.012-.007.018-.012l6.976-4.795c.133-.09.24-.206.32-.334v.002l.006-.014c.055-.09.094-.19.122-.29l8.982-21.368c1.217-2.893-.155-6.254-3.048-7.47l-.898-.376c-1.446-.61-3.01-.57-4.363-.017s-2.498 1.618-3.107 3.065l-8.98 21.36zm3.332 7.92l-.94-5.765 5.79 2.433-4.85 3.333zm6.607-4.76l-7.736-3.25 6.375-15.165 7.734 3.25-6.375 15.166zm8.615-20.497l-1.468 3.493-7.735-3.25 1.468-3.494c.382-.907 1.1-1.614 2.02-1.99.922-.376 1.928-.373 2.836.01l.898.375c.907.38 1.614 1.098 1.99 2.02.376.92.373 1.928-.01 2.835z"/></g></svg>