<?xml version="1.0" encoding="UTF-8" standalone="no"?>
<svg width="332px" height="125px" viewBox="0 0 332 125" version="1.1" xmlns="http://www.w3.org/2000/svg" xmlns:xlink="http://www.w3.org/1999/xlink">
    <!-- Generator: Sketch 3.6.1 (26313) - http://www.bohemiancoding.com/sketch -->
    <title>Group</title>
    <desc>Created with Sketch.</desc>
    <defs></defs>
    <g id="Page-1" stroke="none" stroke-width="1" fill="none" fill-rule="evenodd">
        <g id="Group">
            <path d="M15.0800781,50.2148438 C15.0800781,49.3124955 14.781253,48.6152368 14.1835938,48.1230469 C13.5859345,47.6308569 12.5136796,47.1093778 10.9667969,46.5585938 C7.7324057,45.5390574 5.33594529,44.4462949 3.77734375,43.2802734 C2.21874221,42.114252 1.43945312,40.4296985 1.43945312,38.2265625 C1.43945312,36.0820205 2.36815478,34.3476629 4.22558594,33.0234375 C6.0830171,31.6992121 8.44139195,31.0371094 11.3007812,31.0371094 C14.1367329,31.0371094 16.4599519,31.7665943 18.2705078,33.2255859 C20.0810637,34.6845776 20.9570315,36.5624885 20.8984375,38.859375 L20.8632812,38.9648438 L15.0976562,38.9648438 C15.0976562,37.9453074 14.7519566,37.1162141 14.0605469,36.4775391 C13.3691372,35.838864 12.4140686,35.5195312 11.1953125,35.5195312 C9.99999402,35.5195312 9.0625034,35.7832005 8.3828125,36.3105469 C7.7031216,36.8378933 7.36328125,37.4882774 7.36328125,38.2617188 C7.36328125,39.0117225 7.70605126,39.6123024 8.39160156,40.0634766 C9.07715187,40.5146507 10.3632718,41.0800747 12.25,41.7597656 C15.1562645,42.6269575 17.3447192,43.693353 18.8154297,44.9589844 C20.2861402,46.2246157 21.0214844,47.9648327 21.0214844,50.1796875 C21.0214844,52.4296987 20.1455166,54.1904233 18.3935547,55.4619141 C16.6415928,56.7334048 14.3183738,57.3691406 11.4238281,57.3691406 C8.51756359,57.3691406 6.00391686,56.6396557 3.8828125,55.1806641 C1.76170814,53.7216724 0.730468457,51.6211075 0.7890625,48.8789062 L0.82421875,48.7734375 L6.60742188,48.7734375 C6.60742188,50.2500074 7.00585539,51.3046843 7.80273438,51.9375 C8.59961336,52.5703157 9.80663254,52.8867188 11.4238281,52.8867188 C12.654303,52.8867188 13.571286,52.6406275 14.1748047,52.1484375 C14.7783233,51.6562475 15.0800781,51.0117227 15.0800781,50.2148438 L15.0800781,50.2148438 Z M46.0800781,35.9765625 L39.3300781,35.9765625 L39.3300781,57 L33.3710938,57 L33.3710938,35.9765625 L26.6738281,35.9765625 L26.6738281,31.40625 L46.0800781,31.40625 L46.0800781,35.9765625 Z M68.484375,46.0488281 L58.4472656,46.0488281 L58.4472656,52.4296875 L70.2773438,52.4296875 L70.2773438,57 L52.4882812,57 L52.4882812,31.40625 L70.3125,31.40625 L70.3125,35.9765625 L58.4472656,35.9765625 L58.4472656,41.4785156 L68.484375,41.4785156 L68.484375,46.0488281 Z M61.3828125,24.8847656 L67.5,24.8847656 L67.5351562,24.9902344 L62.6132813,29.5605469 L57.7617188,29.5605469 L61.3828125,24.8847656 Z M82.9257812,48.2285156 L82.9257812,57 L76.9667969,57 L76.9667969,31.40625 L87.3554688,31.40625 C90.3906402,31.40625 92.7988192,32.1826094 94.5800781,33.7353516 C96.361337,35.2880937 97.2519531,37.3183468 97.2519531,39.8261719 C97.2519531,42.3457157 96.361337,44.3759689 94.5800781,45.9169922 C92.7988192,47.4580155 90.3906402,48.2285156 87.3554688,48.2285156 L82.9257812,48.2285156 Z M82.9257812,43.6582031 L87.3554688,43.6582031 C88.6445377,43.6582031 89.6259732,43.3037145 90.2998047,42.5947266 C90.9736362,41.8857386 91.3105469,40.9746149 91.3105469,39.8613281 C91.3105469,38.7246037 90.9736362,37.7929724 90.2998047,37.0664062 C89.6259732,36.3398401 88.6445377,35.9765625 87.3554688,35.9765625 L82.9257812,35.9765625 L82.9257812,43.6582031 Z M125.949219,57 L120.025391,57 L120.025391,46.6992188 L110.550781,46.6992188 L110.550781,57 L104.591797,57 L104.591797,31.40625 L110.550781,31.40625 L110.550781,42.1289062 L120.025391,42.1289062 L120.025391,31.40625 L125.949219,31.40625 L125.949219,57 Z M147.896484,52.0253906 L139.828125,52.0253906 L138.386719,57 L132.410156,57 L140.671875,31.40625 L147.052734,31.40625 L155.332031,57 L149.355469,57 L147.896484,52.0253906 Z M141.146484,47.4550781 L146.578125,47.4550781 L143.90625,38.296875 L143.800781,38.296875 L141.146484,47.4550781 Z M182.5,57 L176.576172,57 L167.207031,40.6875 L167.101562,40.7226562 L167.101562,57 L161.142578,57 L161.142578,31.40625 L167.101562,31.40625 L176.470703,47.71875 L176.576172,47.6835938 L176.576172,31.40625 L182.5,31.40625 L182.5,57 Z M206.521484,46.0488281 L196.484375,46.0488281 L196.484375,52.4296875 L208.314453,52.4296875 L208.314453,57 L190.525391,57 L190.525391,31.40625 L208.349609,31.40625 L208.349609,35.9765625 L196.484375,35.9765625 L196.484375,41.4785156 L206.521484,41.4785156 L206.521484,46.0488281 Z M94.0039062,93.5019531 C94.0039062,91.5397037 93.2841869,89.97136 91.8447266,88.796875 C90.4052662,87.62239 87.909523,86.548182 84.3574219,85.5742188 C80.7909978,84.6145785 78.1806723,83.5224671 76.5263672,82.2978516 C74.872062,81.0732361 74.0449219,79.2864701 74.0449219,76.9375 C74.0449219,74.6028529 75.0188705,72.7408924 76.9667969,71.3515625 C78.9147233,69.9622326 81.3997245,69.2675781 84.421875,69.2675781 C87.4726715,69.2675781 89.9648341,70.1197831 91.8984375,71.8242188 C93.8320409,73.5286544 94.7701826,75.7200387 94.7128906,78.3984375 L94.6699219,78.5273438 L93.6816406,78.5273438 C93.6816406,76.1926967 92.8222742,74.2591222 91.1035156,72.7265625 C89.384757,71.1940028 87.1575658,70.4277344 84.421875,70.4277344 C81.5859233,70.4277344 79.3408286,71.0615171 77.6865234,72.3291016 C76.0322183,73.596686 75.2050781,75.1184807 75.2050781,76.8945312 C75.2050781,78.6705818 75.8889906,80.1458275 77.2568359,81.3203125 C78.6246813,82.4947975 81.0989404,83.54036 84.6796875,84.4570312 C88.1458507,85.3737025 90.7633375,86.4944595 92.5322266,87.8193359 C94.3011156,89.1442124 95.1855469,91.0240764 95.1855469,93.4589844 C95.1855469,95.9368613 94.1757913,97.8883392 92.15625,99.3134766 C90.1367087,100.738614 87.6087391,101.451172 84.5722656,101.451172 C81.4355312,101.451172 78.7356884,100.71713 76.4726562,99.2490234 C74.2096241,97.7809171 73.1139319,95.4713699 73.1855469,92.3203125 L73.2285156,92.1914062 L74.1953125,92.1914062 C74.1953125,95.0273579 75.240875,97.0862566 77.3320312,98.3681641 C79.4231875,99.6500715 81.8365749,100.291016 84.5722656,100.291016 C87.3222794,100.291016 89.5816969,99.6608136 91.3505859,98.4003906 C93.119475,97.1399677 94.0039062,95.5071715 94.0039062,93.5019531 L94.0039062,93.5019531 Z M107.521484,101 L106.361328,101 L106.361328,69.71875 L107.521484,69.71875 L107.521484,101 Z M143.017578,97.6484375 C142.358721,98.5651088 141.094736,99.4280558 139.225586,100.237305 C137.356436,101.046554 135.061212,101.451172 132.339844,101.451172 C128.759097,101.451172 125.855154,100.176445 123.62793,97.6269531 C121.400705,95.0774612 120.287109,91.7617392 120.287109,87.6796875 L120.287109,82.5664062 C120.287109,78.6419075 121.368479,75.4443483 123.53125,72.9736328 C125.694021,70.5029173 128.508446,69.2675781 131.974609,69.2675781 C135.28322,69.2675781 137.907868,70.1233638 139.848633,71.8349609 C141.789398,73.546558 142.78125,75.7558458 142.824219,78.4628906 L142.78125,78.5917969 L141.814453,78.5917969 C141.699869,76.1712119 140.808277,74.2054112 139.139648,72.6943359 C137.47102,71.1832607 135.082698,70.4277344 131.974609,70.4277344 C128.809229,70.4277344 126.263356,71.5556528 124.336914,73.8115234 C122.410472,76.0673941 121.447266,78.9713364 121.447266,82.5234375 L121.447266,87.6796875 C121.447266,91.4036645 122.442698,94.4365117 124.433594,96.7783203 C126.424489,99.1201289 129.059879,100.291016 132.339844,100.291016 C134.645845,100.291016 136.661775,99.9544304 138.387695,99.28125 C140.113615,98.6080696 141.270179,97.8847695 141.857422,97.1113281 L141.857422,88.0019531 L132.296875,88.0019531 L132.296875,86.8203125 L143.017578,86.8203125 L143.017578,97.6484375 Z M176.236328,69.71875 L176.236328,90.9238281 C176.236328,94.3326993 175.248057,96.9394441 173.271484,98.7441406 C171.294912,100.548837 168.723974,101.451172 165.558594,101.451172 C162.364567,101.451172 159.782887,100.545256 157.813477,98.7333984 C155.844066,96.9215404 154.859375,94.3183763 154.859375,90.9238281 L154.859375,69.71875 L156.019531,69.71875 L156.019531,90.9238281 C156.019531,93.8600407 156.907543,96.1552652 158.683594,97.8095703 C160.459644,99.4638755 162.751288,100.291016 165.558594,100.291016 C168.351576,100.291016 170.636059,99.4638755 172.412109,97.8095703 C174.18816,96.1552652 175.076172,93.8600407 175.076172,90.9238281 L175.076172,69.71875 L176.236328,69.71875 Z M189.560547,86.3261719 L189.560547,101.021484 L188.400391,101.021484 L188.400391,69.7402344 L198.369141,69.7402344 C201.663428,69.7402344 204.198559,70.4527924 205.974609,71.8779297 C207.75066,73.303067 208.638672,75.3834499 208.638672,78.1191406 C208.638672,79.8808682 208.076503,81.4814381 206.952148,82.9208984 C205.827794,84.3603588 204.291676,85.2949197 202.34375,85.7246094 C204.592459,86.1113301 206.203771,86.9348895 207.177734,88.1953125 C208.151698,89.4557355 208.638672,91.0670475 208.638672,93.0292969 L208.638672,95.9726562 C208.638672,96.9466195 208.756835,97.8203086 208.993164,98.59375 C209.229493,99.3671914 209.619789,99.9973934 210.164062,100.484375 L210.164062,101.021484 L209.025391,101.021484 C208.509763,100.434242 208.123048,99.7073611 207.865234,98.8408203 C207.607421,97.9742795 207.478516,97.0039116 207.478516,95.9296875 L207.478516,93.0722656 C207.478516,90.9524634 206.751635,89.298183 205.297852,88.109375 C203.844068,86.920567 201.770847,86.3261719 199.078125,86.3261719 L189.560547,86.3261719 Z M189.560547,85.1660156 L198.154297,85.1660156 C201.348323,85.1660156 203.700839,84.4928453 205.211914,83.1464844 C206.722989,81.8001235 207.478516,80.124359 207.478516,78.1191406 C207.478516,75.7844935 206.715828,73.9977275 205.19043,72.7587891 C203.665031,71.5198506 201.391291,70.9003906 198.369141,70.9003906 L189.560547,70.9003906 L189.560547,85.1660156 Z" id="STÉPHANE" fill="#FFFFFF"></path>
            <circle id="Oval-1" fill="#FFFFFF" cx="322" cy="115" r="10"></circle>
            <path d="M233.974486,106.39854 C230.312005,101.322469 227.677627,95.8930811 226.071275,90.1102149 C224.464924,84.3273486 224.015152,78.3518098 224.721947,72.1834192 C225.428742,66.0150285 227.324208,60.2322491 230.408403,54.8349072 L258.744306,5.48802883 C260.54342,2.66084978 263.113544,0.926015934 266.454756,0.283475242 C269.795968,-0.35906545 272.815864,0.090706288 275.514535,1.63280395 C278.59873,3.43191789 280.590576,6.0020421 281.490133,9.3432537 C282.38969,12.6844653 282.004171,15.7686144 280.333566,18.5957934 L273.2014,31.1252743 C280.397855,31.6393068 287.401444,33.8881655 294.212375,37.8719178 C299.995241,41.0846212 304.749971,45.19682 308.476707,50.2086374 C312.203443,55.2204548 314.805694,60.5855891 316.283538,66.3042013 C317.761381,72.0228134 318.114773,77.9340991 317.343724,84.0382357 C316.572676,90.1423723 314.580829,95.9572783 311.368126,101.483128 C308.155422,107.137486 304.07535,111.795836 299.127787,115.458318 C294.180224,119.1208 288.815089,121.723051 283.032223,123.265149 C277.249357,124.807246 271.305945,125.224892 265.201808,124.518097 C259.097671,123.811302 253.282765,121.851582 247.756915,118.638879 C242.231065,115.554684 237.636968,111.474611 233.974486,106.39854 Z M252.383185,67.3643881 C250.841088,69.9345509 249.909418,72.6010547 249.588147,75.3639797 C249.266877,78.1269047 249.459636,80.8255351 250.166431,83.459952 C250.873226,86.0943688 252.061908,88.6002399 253.732514,90.9776405 C255.40312,93.355041 257.587725,95.3147607 260.286396,96.8568584 C262.856559,98.2704479 265.523063,99.1378648 268.285988,99.4591352 C271.048913,99.7804055 273.747543,99.5876462 276.38196,98.8808515 C279.016377,98.1740567 281.490122,96.9853742 283.803268,95.3147685 C286.116414,93.6441627 288.044008,91.5238102 289.586105,88.9536474 C290.999695,86.3834846 291.899238,83.6848542 292.284763,80.8576752 C292.670287,78.0304961 292.509654,75.2676126 291.80286,72.5689417 C291.096065,69.8702708 289.939509,67.3643997 288.333157,65.0512532 C286.726806,62.7381067 284.574326,60.8105135 281.875656,59.2684159 C279.434001,57.8548263 276.799624,56.9874094 273.972445,56.6661391 C271.145266,56.3448687 268.382382,56.5055015 265.683711,57.1480422 C262.98504,57.7905829 260.479169,58.9792653 258.166023,60.7141252 C255.852876,62.4489851 253.925283,64.6657172 252.383185,67.3643881 L252.383185,67.3643881 Z" id="6" fill="#00B9FF"></path>
        </g>
    </g>
</svg>