<?xml version="1.0" encoding="UTF-8" standalone="no"?>
<svg width="108px" height="48px" viewBox="0 0 108 48" version="1.1" xmlns="http://www.w3.org/2000/svg" xmlns:xlink="http://www.w3.org/1999/xlink">
    <!-- Generator: Sketch 3.6.1 (26313) - http://www.bohemiancoding.com/sketch -->
    <title>Group 2</title>
    <desc>Created with Sketch.</desc>
    <defs></defs>
    <g id="Accueil" stroke="none" stroke-width="1" fill="none" fill-rule="evenodd">
        <g id="Group-2">
            <path d="M32.2737187,24.0664062 C32.2737187,21.960927 33.0435678,20.2959046 34.5832891,19.0712891 C36.1230103,17.8466736 38.2248773,17.234375 40.8889531,17.234375 L49.0315312,17.234375 L49.0315312,20.2851562 L45.0354375,20.2851562 C45.8088789,21.0729206 46.3459829,21.7890593 46.6467656,22.4335937 C46.9475484,23.0781282 47.0979375,23.8157511 47.0979375,24.6464844 C47.0979375,25.6777395 46.8043206,26.6910758 46.2170781,27.6865234 C45.6298356,28.6819711 44.8743093,29.4446588 43.9504766,29.9746094 C43.0266438,30.5045599 41.5120105,30.9270818 39.4065312,31.2421875 C37.9312635,31.4570323 37.1936406,31.9654908 37.1936406,32.7675781 C37.1936406,33.2259137 37.469354,33.6018866 38.0207891,33.8955078 C38.5722241,34.1891291 39.5712376,34.493488 41.0178594,34.8085937 C43.4384444,35.3385443 44.996046,35.7539047 45.6907109,36.0546875 C46.3853759,36.3554703 47.0119972,36.7851535 47.5705937,37.34375 C48.515911,38.2890672 48.9885625,39.4778574 48.9885625,40.9101562 C48.9885625,42.7864677 48.1542609,44.2831975 46.4856328,45.4003906 C44.8170047,46.5175837 42.5862327,47.0761719 39.79325,47.0761719 C36.9716213,47.0761719 34.7193652,46.514003 33.0364141,45.3896484 C31.3534629,44.2652939 30.512,42.757822 30.512,40.8671875 C30.512,38.1887887 32.1662803,36.4628945 35.4748906,35.6894531 C34.1571757,34.8443968 33.4983281,34.0065146 33.4983281,33.1757812 C33.4983281,32.5455698 33.7812029,31.9726588 34.3469609,31.4570312 C34.912719,30.9414037 35.6754067,30.5618502 36.6350469,30.3183594 C33.7274803,29.0292904 32.2737187,26.9453269 32.2737187,24.0664062 L32.2737187,24.0664062 Z M39.621375,20.6289062 C38.5614739,20.6289062 37.6591391,20.9869756 36.9143437,21.703125 C36.1695484,22.4192744 35.7971562,23.2786408 35.7971562,24.28125 C35.7971562,25.2981822 36.162387,26.1396451 36.8928594,26.8056641 C37.6233318,27.471683 38.5471507,27.8046875 39.6643437,27.8046875 C40.7672138,27.8046875 41.687452,27.4645216 42.4250859,26.7841797 C43.1627198,26.1038377 43.5315312,25.2552134 43.5315312,24.2382812 C43.5315312,23.2070261 43.1591391,22.3476597 42.4143437,21.6601562 C41.6695484,20.9726528 40.7385681,20.6289062 39.621375,20.6289062 L39.621375,20.6289062 Z M38.6975469,37.9238281 C37.379832,37.9238281 36.3020433,38.2031222 35.4641484,38.7617187 C34.6262536,39.3203153 34.2073125,40.036454 34.2073125,40.9101562 C34.2073125,42.9440206 36.0406275,43.9609375 39.7073125,43.9609375 C41.4403941,43.9609375 42.7831541,43.7067083 43.7356328,43.1982422 C44.6881115,42.6897761 45.1643437,41.9700567 45.1643437,41.0390625 C45.1643437,40.1223912 44.5627873,39.3740263 43.3596562,38.7939453 C42.1565252,38.2138643 40.6025043,37.9238281 38.6975469,37.9238281 L38.6975469,37.9238281 Z M66.6506719,37 L66.6506719,34.4863281 C65.8199386,35.3886764 64.8710548,36.0904923 63.8039922,36.5917969 C62.7369296,37.0931015 61.6734636,37.34375 60.6135625,37.34375 C59.3674625,37.34375 58.21806,37.0322297 57.1653203,36.4091797 C56.1125807,35.7861297 55.3176667,34.9410861 54.7805547,33.8740234 C54.2434426,32.8069608 53.9748906,31.0345176 53.9748906,28.5566406 L53.9748906,17.234375 L57.8850469,17.234375 L57.8850469,28.5136719 C57.8850469,30.5905052 58.1822444,32.040686 58.7766484,32.8642578 C59.3710525,33.6878296 60.4130342,34.0996094 61.902625,34.0996094 C63.7646135,34.0996094 65.3472799,33.1901133 66.6506719,31.3710937 L66.6506719,17.234375 L70.5608281,17.234375 L70.5608281,37 L66.6506719,37 Z M82.2502812,17.234375 L82.2502812,21.7675781 L82.465125,21.4238281 C84.3557595,18.3730316 86.2463655,16.8476562 88.137,16.8476562 C89.6122678,16.8476562 91.1519659,17.5924405 92.7561406,19.0820312 L90.6936406,22.5195312 C89.3329567,21.2304623 88.0725527,20.5859375 86.9123906,20.5859375 C85.6519677,20.5859375 84.5598562,21.187494 83.6360234,22.390625 C82.7121907,23.593756 82.2502812,25.018872 82.2502812,26.6660156 L82.2502812,37 L78.3186406,37 L78.3186406,17.234375 L82.2502812,17.234375 Z" id="6gur." fill="#FFFFFF"></path>
            <path d="M102.770789,28.9423828 C103.999311,28.9423828 105.047152,29.3639281 105.914344,30.2070312 C106.781536,31.0501344 107.215125,32.0859314 107.215125,33.3144531 C107.215125,34.5188862 106.787558,35.5305949 105.93241,36.3496094 C105.077263,37.1686239 104.023399,37.578125 102.770789,37.578125 C101.542267,37.578125 100.50647,37.1686239 99.6633672,36.3496094 C98.820264,35.5305949 98.3987187,34.5188862 98.3987187,33.3144531 C98.3987187,32.0859314 98.820264,31.0501344 99.6633672,30.2070312 C100.50647,29.3639281 101.542267,28.9423828 102.770789,28.9423828 L102.770789,28.9423828 Z" id="Path" fill="#00B9FF"></path>
            <path d="M7.064,35.152 C5.45865864,34.2559955 4.12400532,33.070674 3.06,31.596 C1.99599468,30.121326 1.230669,28.5440084 0.764,26.864 C0.297331,25.1839916 0.16666564,23.448009 0.372,21.656 C0.57733436,19.863991 1.12799552,18.1840078 2.024,16.616 L10.256,2.28 C10.7786693,1.45866256 11.5253285,0.9546676 12.496,0.768 C13.4666715,0.5813324 14.3439961,0.71199776 15.128,1.16 C16.0240045,1.68266928 16.6026654,2.42932848 16.864,3.4 C17.1253346,4.37067152 17.0133358,5.26666256 16.528,6.088 L14.456,9.728 C16.5466771,9.87733408 18.5813234,10.5306609 20.56,11.688 C22.2400084,12.621338 23.6213279,13.8159927 24.704,15.272 C25.7866721,16.7280073 26.5426645,18.2866584 26.972,19.948 C27.4013355,21.6093416 27.5040011,23.3266578 27.28,25.1 C27.0559989,26.8733422 26.477338,28.5626586 25.544,30.168 C24.610662,31.8106749 23.4253405,33.1639947 21.988,34.228 C20.5506595,35.2920053 18.9920084,36.0479978 17.312,36.496 C15.6319916,36.9440022 13.9053422,37.0653344 12.132,36.86 C10.3586578,36.6546656 8.66934136,36.085338 7.064,35.152 Z M8.408,20.256 C7.95999776,21.0026704 7.6893338,21.7773293 7.596,22.58 C7.5026662,23.3826707 7.55866564,24.1666628 7.764,24.932 C7.96933436,25.6973372 8.31466424,26.4253299 8.8,27.116 C9.28533576,27.8066701 9.91999608,28.3759978 10.704,28.824 C11.4506704,29.2346687 12.2253293,29.4866662 13.028,29.58 C13.8306707,29.6733338 14.6146628,29.6173344 15.38,29.412 C16.1453372,29.2066656 16.8639966,28.8613358 17.536,28.376 C18.2080034,27.8906642 18.7679978,27.2746704 19.216,26.528 C19.6266687,25.7813296 19.8879994,24.9973374 20,24.176 C20.1120006,23.3546626 20.0653344,22.5520039 19.86,21.768 C19.6546656,20.9839961 19.318669,20.2560034 18.852,19.584 C18.385331,18.9119966 17.7600039,18.3520022 16.976,17.904 C16.2666631,17.4933313 15.5013374,17.2413338 14.68,17.148 C13.8586626,17.0546662 13.0560039,17.1013324 12.272,17.288 C11.4879961,17.4746676 10.7600034,17.8199975 10.088,18.324 C9.41599664,18.8280025 8.85600224,19.4719961 8.408,20.256 Z" id="Path" fill="#00B9FF"></path>
        </g>
    </g>
</svg>