<?xml version="1.0" encoding="UTF-8" standalone="no"?>
<svg width="34px" height="81px" viewBox="0 0 34 81" version="1.1" xmlns="http://www.w3.org/2000/svg" xmlns:xlink="http://www.w3.org/1999/xlink">
    <!-- Generator: Sketch 3.6.1 (26313) - http://www.bohemiancoding.com/sketch -->
    <title>Group</title>
    <desc>Created with Sketch.</desc>
    <defs></defs>
    <g id="Page-1" stroke="none" stroke-width="1" fill="none" fill-rule="evenodd">
        <g id="Group">
            <g id="Arrow" transform="translate(8.000000, 61.000000)" stroke="#FFFFFF" stroke-width="2">
                <path d="M18,9.5 L9,18.5 L0,9.5" id="Shape"></path>
                <path d="M9,0 L9,18.5" id="Shape"></path>
            </g>
            <path d="M18.9,0.2 L15,0.2 C6.7,0.2 0,7 0,15.3 L0,40.7 C0,49 6.8,55.8 15.1,55.8 L19,55.8 C27.3,55.8 34,49 34,40.7 L34,15.3 C34,7 27.3,0.2 18.9,0.2 L18.9,0.2 L18.9,0.2 Z M31,40.7 C31,47.4 25.6,52.8 18.9,52.8 L15,52.8 C8.3,52.8 2.9,47.4 2.9,40.7 L2.9,15.3 C2.9,8.6 8.3,3.2 15,3.2 L18.9,3.2 C25.6,3.2 31,8.6 31,15.3 L31,40.7 L31,40.7 L31,40.7 Z" id="Shape" fill="#FFFFFF"></path>
            <path d="M17,11.6 C16.2,11.6 15.5,12.3 15.5,13.1 L15.5,23.8 C15.5,24.6 16.2,25.3 17,25.3 C17.8,25.3 18.5,24.6 18.5,23.8 L18.5,13.1 C18.5,12.2 17.8,11.6 17,11.6 L17,11.6 L17,11.6 Z" id="Shape" fill="#FFFFFF"></path>
        </g>
    </g>
</svg>